<mxfile host="Electron" modified="2023-12-05T21:12:15.654Z" agent="Mozilla/5.0 (Macintosh; Intel Mac OS X 10_15_7) AppleWebKit/537.36 (KHTML, like Gecko) draw.io/22.1.2 Chrome/114.0.5735.289 Electron/25.9.4 Safari/537.36" etag="x0m92TJg2tY8i1DtucTY" version="22.1.2" type="device" pages="2">
  <diagram name="Page-1" id="n0ZOhfGp7_fPpTbf6uh3">
    <mxGraphModel dx="2636" dy="2230" grid="1" gridSize="10" guides="1" tooltips="1" connect="1" arrows="1" fold="1" page="1" pageScale="1" pageWidth="827" pageHeight="1169" math="0" shadow="0">
      <root>
        <mxCell id="0" />
        <mxCell id="1" parent="0" />
        <mxCell id="UXmly0hNfvdbmVREp-n4-1" value="Variant" style="shape=table;startSize=30;container=1;collapsible=1;childLayout=tableLayout;fixedRows=1;rowLines=0;fontStyle=1;align=center;resizeLast=1;html=1;" parent="1" vertex="1">
          <mxGeometry x="70" y="150" width="200" height="300" as="geometry">
            <mxRectangle x="70" y="150" width="80" height="30" as="alternateBounds" />
          </mxGeometry>
        </mxCell>
        <mxCell id="UXmly0hNfvdbmVREp-n4-2" value="" style="shape=tableRow;horizontal=0;startSize=0;swimlaneHead=0;swimlaneBody=0;fillColor=none;collapsible=0;dropTarget=0;points=[[0,0.5],[1,0.5]];portConstraint=eastwest;top=0;left=0;right=0;bottom=1;" parent="UXmly0hNfvdbmVREp-n4-1" vertex="1">
          <mxGeometry y="30" width="200" height="30" as="geometry" />
        </mxCell>
        <mxCell id="UXmly0hNfvdbmVREp-n4-3" value="PK" style="shape=partialRectangle;connectable=0;fillColor=none;top=0;left=0;bottom=0;right=0;fontStyle=1;overflow=hidden;whiteSpace=wrap;html=1;" parent="UXmly0hNfvdbmVREp-n4-2" vertex="1">
          <mxGeometry width="60" height="30" as="geometry">
            <mxRectangle width="60" height="30" as="alternateBounds" />
          </mxGeometry>
        </mxCell>
        <mxCell id="UXmly0hNfvdbmVREp-n4-4" value="variantId" style="shape=partialRectangle;connectable=0;fillColor=none;top=0;left=0;bottom=0;right=0;align=left;spacingLeft=6;fontStyle=5;overflow=hidden;whiteSpace=wrap;html=1;" parent="UXmly0hNfvdbmVREp-n4-2" vertex="1">
          <mxGeometry x="60" width="140" height="30" as="geometry">
            <mxRectangle width="140" height="30" as="alternateBounds" />
          </mxGeometry>
        </mxCell>
        <mxCell id="UXmly0hNfvdbmVREp-n4-8" value="" style="shape=tableRow;horizontal=0;startSize=0;swimlaneHead=0;swimlaneBody=0;fillColor=none;collapsible=0;dropTarget=0;points=[[0,0.5],[1,0.5]];portConstraint=eastwest;top=0;left=0;right=0;bottom=0;" parent="UXmly0hNfvdbmVREp-n4-1" vertex="1">
          <mxGeometry y="60" width="200" height="30" as="geometry" />
        </mxCell>
        <mxCell id="UXmly0hNfvdbmVREp-n4-9" value="text" style="shape=partialRectangle;connectable=0;fillColor=none;top=0;left=0;bottom=0;right=0;editable=1;overflow=hidden;whiteSpace=wrap;html=1;" parent="UXmly0hNfvdbmVREp-n4-8" vertex="1">
          <mxGeometry width="60" height="30" as="geometry">
            <mxRectangle width="60" height="30" as="alternateBounds" />
          </mxGeometry>
        </mxCell>
        <mxCell id="UXmly0hNfvdbmVREp-n4-10" value="chromosome" style="shape=partialRectangle;connectable=0;fillColor=none;top=0;left=0;bottom=0;right=0;align=left;spacingLeft=6;overflow=hidden;whiteSpace=wrap;html=1;" parent="UXmly0hNfvdbmVREp-n4-8" vertex="1">
          <mxGeometry x="60" width="140" height="30" as="geometry">
            <mxRectangle width="140" height="30" as="alternateBounds" />
          </mxGeometry>
        </mxCell>
        <mxCell id="UXmly0hNfvdbmVREp-n4-11" value="" style="shape=tableRow;horizontal=0;startSize=0;swimlaneHead=0;swimlaneBody=0;fillColor=none;collapsible=0;dropTarget=0;points=[[0,0.5],[1,0.5]];portConstraint=eastwest;top=0;left=0;right=0;bottom=0;" parent="UXmly0hNfvdbmVREp-n4-1" vertex="1">
          <mxGeometry y="90" width="200" height="30" as="geometry" />
        </mxCell>
        <mxCell id="UXmly0hNfvdbmVREp-n4-12" value="number" style="shape=partialRectangle;connectable=0;fillColor=none;top=0;left=0;bottom=0;right=0;editable=1;overflow=hidden;whiteSpace=wrap;html=1;" parent="UXmly0hNfvdbmVREp-n4-11" vertex="1">
          <mxGeometry width="60" height="30" as="geometry">
            <mxRectangle width="60" height="30" as="alternateBounds" />
          </mxGeometry>
        </mxCell>
        <mxCell id="UXmly0hNfvdbmVREp-n4-13" value="chromosomePosition" style="shape=partialRectangle;connectable=0;fillColor=none;top=0;left=0;bottom=0;right=0;align=left;spacingLeft=6;overflow=hidden;whiteSpace=wrap;html=1;" parent="UXmly0hNfvdbmVREp-n4-11" vertex="1">
          <mxGeometry x="60" width="140" height="30" as="geometry">
            <mxRectangle width="140" height="30" as="alternateBounds" />
          </mxGeometry>
        </mxCell>
        <mxCell id="UXmly0hNfvdbmVREp-n4-31" style="shape=tableRow;horizontal=0;startSize=0;swimlaneHead=0;swimlaneBody=0;fillColor=none;collapsible=0;dropTarget=0;points=[[0,0.5],[1,0.5]];portConstraint=eastwest;top=0;left=0;right=0;bottom=0;" parent="UXmly0hNfvdbmVREp-n4-1" vertex="1">
          <mxGeometry y="120" width="200" height="30" as="geometry" />
        </mxCell>
        <mxCell id="UXmly0hNfvdbmVREp-n4-32" value="text[]" style="shape=partialRectangle;connectable=0;fillColor=none;top=0;left=0;bottom=0;right=0;editable=1;overflow=hidden;whiteSpace=wrap;html=1;" parent="UXmly0hNfvdbmVREp-n4-31" vertex="1">
          <mxGeometry width="60" height="30" as="geometry">
            <mxRectangle width="60" height="30" as="alternateBounds" />
          </mxGeometry>
        </mxCell>
        <mxCell id="UXmly0hNfvdbmVREp-n4-33" value="&lt;span style=&quot;background-color: rgb(233, 255, 38);&quot;&gt;genes (FK?)&lt;/span&gt;" style="shape=partialRectangle;connectable=0;fillColor=none;top=0;left=0;bottom=0;right=0;align=left;spacingLeft=6;overflow=hidden;whiteSpace=wrap;html=1;" parent="UXmly0hNfvdbmVREp-n4-31" vertex="1">
          <mxGeometry x="60" width="140" height="30" as="geometry">
            <mxRectangle width="140" height="30" as="alternateBounds" />
          </mxGeometry>
        </mxCell>
        <mxCell id="UXmly0hNfvdbmVREp-n4-34" style="shape=tableRow;horizontal=0;startSize=0;swimlaneHead=0;swimlaneBody=0;fillColor=none;collapsible=0;dropTarget=0;points=[[0,0.5],[1,0.5]];portConstraint=eastwest;top=0;left=0;right=0;bottom=0;" parent="UXmly0hNfvdbmVREp-n4-1" vertex="1">
          <mxGeometry y="150" width="200" height="30" as="geometry" />
        </mxCell>
        <mxCell id="UXmly0hNfvdbmVREp-n4-35" value="text" style="shape=partialRectangle;connectable=0;fillColor=none;top=0;left=0;bottom=0;right=0;editable=1;overflow=hidden;whiteSpace=wrap;html=1;" parent="UXmly0hNfvdbmVREp-n4-34" vertex="1">
          <mxGeometry width="60" height="30" as="geometry">
            <mxRectangle width="60" height="30" as="alternateBounds" />
          </mxGeometry>
        </mxCell>
        <mxCell id="UXmly0hNfvdbmVREp-n4-36" value="type" style="shape=partialRectangle;connectable=0;fillColor=none;top=0;left=0;bottom=0;right=0;align=left;spacingLeft=6;overflow=hidden;whiteSpace=wrap;html=1;" parent="UXmly0hNfvdbmVREp-n4-34" vertex="1">
          <mxGeometry x="60" width="140" height="30" as="geometry">
            <mxRectangle width="140" height="30" as="alternateBounds" />
          </mxGeometry>
        </mxCell>
        <mxCell id="UXmly0hNfvdbmVREp-n4-37" style="shape=tableRow;horizontal=0;startSize=0;swimlaneHead=0;swimlaneBody=0;fillColor=none;collapsible=0;dropTarget=0;points=[[0,0.5],[1,0.5]];portConstraint=eastwest;top=0;left=0;right=0;bottom=0;" parent="UXmly0hNfvdbmVREp-n4-1" vertex="1">
          <mxGeometry y="180" width="200" height="30" as="geometry" />
        </mxCell>
        <mxCell id="UXmly0hNfvdbmVREp-n4-38" value="text" style="shape=partialRectangle;connectable=0;fillColor=none;top=0;left=0;bottom=0;right=0;editable=1;overflow=hidden;whiteSpace=wrap;html=1;" parent="UXmly0hNfvdbmVREp-n4-37" vertex="1">
          <mxGeometry width="60" height="30" as="geometry">
            <mxRectangle width="60" height="30" as="alternateBounds" />
          </mxGeometry>
        </mxCell>
        <mxCell id="UXmly0hNfvdbmVREp-n4-39" value="genotype" style="shape=partialRectangle;connectable=0;fillColor=none;top=0;left=0;bottom=0;right=0;align=left;spacingLeft=6;overflow=hidden;whiteSpace=wrap;html=1;" parent="UXmly0hNfvdbmVREp-n4-37" vertex="1">
          <mxGeometry x="60" width="140" height="30" as="geometry">
            <mxRectangle width="140" height="30" as="alternateBounds" />
          </mxGeometry>
        </mxCell>
        <mxCell id="UXmly0hNfvdbmVREp-n4-40" style="shape=tableRow;horizontal=0;startSize=0;swimlaneHead=0;swimlaneBody=0;fillColor=none;collapsible=0;dropTarget=0;points=[[0,0.5],[1,0.5]];portConstraint=eastwest;top=0;left=0;right=0;bottom=0;" parent="UXmly0hNfvdbmVREp-n4-1" vertex="1">
          <mxGeometry y="210" width="200" height="30" as="geometry" />
        </mxCell>
        <mxCell id="UXmly0hNfvdbmVREp-n4-41" value="text" style="shape=partialRectangle;connectable=0;fillColor=none;top=0;left=0;bottom=0;right=0;editable=1;overflow=hidden;whiteSpace=wrap;html=1;" parent="UXmly0hNfvdbmVREp-n4-40" vertex="1">
          <mxGeometry width="60" height="30" as="geometry">
            <mxRectangle width="60" height="30" as="alternateBounds" />
          </mxGeometry>
        </mxCell>
        <mxCell id="UXmly0hNfvdbmVREp-n4-42" value="refAllele" style="shape=partialRectangle;connectable=0;fillColor=none;top=0;left=0;bottom=0;right=0;align=left;spacingLeft=6;overflow=hidden;whiteSpace=wrap;html=1;" parent="UXmly0hNfvdbmVREp-n4-40" vertex="1">
          <mxGeometry x="60" width="140" height="30" as="geometry">
            <mxRectangle width="140" height="30" as="alternateBounds" />
          </mxGeometry>
        </mxCell>
        <mxCell id="UXmly0hNfvdbmVREp-n4-43" style="shape=tableRow;horizontal=0;startSize=0;swimlaneHead=0;swimlaneBody=0;fillColor=none;collapsible=0;dropTarget=0;points=[[0,0.5],[1,0.5]];portConstraint=eastwest;top=0;left=0;right=0;bottom=0;" parent="UXmly0hNfvdbmVREp-n4-1" vertex="1">
          <mxGeometry y="240" width="200" height="30" as="geometry" />
        </mxCell>
        <mxCell id="UXmly0hNfvdbmVREp-n4-44" value="text" style="shape=partialRectangle;connectable=0;fillColor=none;top=0;left=0;bottom=0;right=0;editable=1;overflow=hidden;whiteSpace=wrap;html=1;" parent="UXmly0hNfvdbmVREp-n4-43" vertex="1">
          <mxGeometry width="60" height="30" as="geometry">
            <mxRectangle width="60" height="30" as="alternateBounds" />
          </mxGeometry>
        </mxCell>
        <mxCell id="UXmly0hNfvdbmVREp-n4-45" value="observedAllele" style="shape=partialRectangle;connectable=0;fillColor=none;top=0;left=0;bottom=0;right=0;align=left;spacingLeft=6;overflow=hidden;whiteSpace=wrap;html=1;" parent="UXmly0hNfvdbmVREp-n4-43" vertex="1">
          <mxGeometry x="60" width="140" height="30" as="geometry">
            <mxRectangle width="140" height="30" as="alternateBounds" />
          </mxGeometry>
        </mxCell>
        <mxCell id="UXmly0hNfvdbmVREp-n4-46" style="shape=tableRow;horizontal=0;startSize=0;swimlaneHead=0;swimlaneBody=0;fillColor=none;collapsible=0;dropTarget=0;points=[[0,0.5],[1,0.5]];portConstraint=eastwest;top=0;left=0;right=0;bottom=0;" parent="UXmly0hNfvdbmVREp-n4-1" vertex="1">
          <mxGeometry y="270" width="200" height="30" as="geometry" />
        </mxCell>
        <mxCell id="UXmly0hNfvdbmVREp-n4-47" value="text" style="shape=partialRectangle;connectable=0;fillColor=none;top=0;left=0;bottom=0;right=0;editable=1;overflow=hidden;whiteSpace=wrap;html=1;" parent="UXmly0hNfvdbmVREp-n4-46" vertex="1">
          <mxGeometry width="60" height="30" as="geometry">
            <mxRectangle width="60" height="30" as="alternateBounds" />
          </mxGeometry>
        </mxCell>
        <mxCell id="UXmly0hNfvdbmVREp-n4-48" value="classification" style="shape=partialRectangle;connectable=0;fillColor=none;top=0;left=0;bottom=0;right=0;align=left;spacingLeft=6;overflow=hidden;whiteSpace=wrap;html=1;" parent="UXmly0hNfvdbmVREp-n4-46" vertex="1">
          <mxGeometry x="60" width="140" height="30" as="geometry">
            <mxRectangle width="140" height="30" as="alternateBounds" />
          </mxGeometry>
        </mxCell>
        <mxCell id="UXmly0hNfvdbmVREp-n4-52" value="ClinVar" style="shape=table;startSize=30;container=1;collapsible=1;childLayout=tableLayout;fixedRows=1;rowLines=0;fontStyle=1;align=center;resizeLast=1;html=1;" parent="1" vertex="1">
          <mxGeometry x="647" y="160" width="180" height="140" as="geometry" />
        </mxCell>
        <mxCell id="UXmly0hNfvdbmVREp-n4-53" value="" style="shape=tableRow;horizontal=0;startSize=0;swimlaneHead=0;swimlaneBody=0;fillColor=none;collapsible=0;dropTarget=0;points=[[0,0.5],[1,0.5]];portConstraint=eastwest;top=0;left=0;right=0;bottom=1;" parent="UXmly0hNfvdbmVREp-n4-52" vertex="1">
          <mxGeometry y="30" width="180" height="30" as="geometry" />
        </mxCell>
        <mxCell id="UXmly0hNfvdbmVREp-n4-54" value="PK" style="shape=partialRectangle;connectable=0;fillColor=none;top=0;left=0;bottom=0;right=0;fontStyle=1;overflow=hidden;whiteSpace=wrap;html=1;" parent="UXmly0hNfvdbmVREp-n4-53" vertex="1">
          <mxGeometry width="43" height="30" as="geometry">
            <mxRectangle width="43" height="30" as="alternateBounds" />
          </mxGeometry>
        </mxCell>
        <mxCell id="UXmly0hNfvdbmVREp-n4-55" value="clinVarId" style="shape=partialRectangle;connectable=0;fillColor=none;top=0;left=0;bottom=0;right=0;align=left;spacingLeft=6;fontStyle=5;overflow=hidden;whiteSpace=wrap;html=1;" parent="UXmly0hNfvdbmVREp-n4-53" vertex="1">
          <mxGeometry x="43" width="137" height="30" as="geometry">
            <mxRectangle width="137" height="30" as="alternateBounds" />
          </mxGeometry>
        </mxCell>
        <mxCell id="UXmly0hNfvdbmVREp-n4-56" value="" style="shape=tableRow;horizontal=0;startSize=0;swimlaneHead=0;swimlaneBody=0;fillColor=none;collapsible=0;dropTarget=0;points=[[0,0.5],[1,0.5]];portConstraint=eastwest;top=0;left=0;right=0;bottom=0;" parent="UXmly0hNfvdbmVREp-n4-52" vertex="1">
          <mxGeometry y="60" width="180" height="30" as="geometry" />
        </mxCell>
        <mxCell id="UXmly0hNfvdbmVREp-n4-57" value="&lt;b&gt;FK&lt;/b&gt;" style="shape=partialRectangle;connectable=0;fillColor=none;top=0;left=0;bottom=0;right=0;editable=1;overflow=hidden;whiteSpace=wrap;html=1;" parent="UXmly0hNfvdbmVREp-n4-56" vertex="1">
          <mxGeometry width="43" height="30" as="geometry">
            <mxRectangle width="43" height="30" as="alternateBounds" />
          </mxGeometry>
        </mxCell>
        <mxCell id="UXmly0hNfvdbmVREp-n4-58" value="classificationId" style="shape=partialRectangle;connectable=0;fillColor=none;top=0;left=0;bottom=0;right=0;align=left;spacingLeft=6;overflow=hidden;whiteSpace=wrap;html=1;" parent="UXmly0hNfvdbmVREp-n4-56" vertex="1">
          <mxGeometry x="43" width="137" height="30" as="geometry">
            <mxRectangle width="137" height="30" as="alternateBounds" />
          </mxGeometry>
        </mxCell>
        <mxCell id="UXmly0hNfvdbmVREp-n4-59" value="" style="shape=tableRow;horizontal=0;startSize=0;swimlaneHead=0;swimlaneBody=0;fillColor=none;collapsible=0;dropTarget=0;points=[[0,0.5],[1,0.5]];portConstraint=eastwest;top=0;left=0;right=0;bottom=0;" parent="UXmly0hNfvdbmVREp-n4-52" vertex="1">
          <mxGeometry y="90" width="180" height="30" as="geometry" />
        </mxCell>
        <mxCell id="UXmly0hNfvdbmVREp-n4-60" value="text" style="shape=partialRectangle;connectable=0;fillColor=none;top=0;left=0;bottom=0;right=0;editable=1;overflow=hidden;whiteSpace=wrap;html=1;" parent="UXmly0hNfvdbmVREp-n4-59" vertex="1">
          <mxGeometry width="43" height="30" as="geometry">
            <mxRectangle width="43" height="30" as="alternateBounds" />
          </mxGeometry>
        </mxCell>
        <mxCell id="UXmly0hNfvdbmVREp-n4-61" value="errorMsg" style="shape=partialRectangle;connectable=0;fillColor=none;top=0;left=0;bottom=0;right=0;align=left;spacingLeft=6;overflow=hidden;whiteSpace=wrap;html=1;" parent="UXmly0hNfvdbmVREp-n4-59" vertex="1">
          <mxGeometry x="43" width="137" height="30" as="geometry">
            <mxRectangle width="137" height="30" as="alternateBounds" />
          </mxGeometry>
        </mxCell>
        <mxCell id="UXmly0hNfvdbmVREp-n4-265" style="shape=tableRow;horizontal=0;startSize=0;swimlaneHead=0;swimlaneBody=0;fillColor=none;collapsible=0;dropTarget=0;points=[[0,0.5],[1,0.5]];portConstraint=eastwest;top=0;left=0;right=0;bottom=0;" parent="UXmly0hNfvdbmVREp-n4-52" vertex="1">
          <mxGeometry y="120" width="180" height="20" as="geometry" />
        </mxCell>
        <mxCell id="UXmly0hNfvdbmVREp-n4-266" value="text" style="shape=partialRectangle;connectable=0;fillColor=none;top=0;left=0;bottom=0;right=0;editable=1;overflow=hidden;whiteSpace=wrap;html=1;" parent="UXmly0hNfvdbmVREp-n4-265" vertex="1">
          <mxGeometry width="43" height="20" as="geometry">
            <mxRectangle width="43" height="20" as="alternateBounds" />
          </mxGeometry>
        </mxCell>
        <mxCell id="UXmly0hNfvdbmVREp-n4-267" value="canonicalSpdi" style="shape=partialRectangle;connectable=0;fillColor=none;top=0;left=0;bottom=0;right=0;align=left;spacingLeft=6;overflow=hidden;whiteSpace=wrap;html=1;" parent="UXmly0hNfvdbmVREp-n4-265" vertex="1">
          <mxGeometry x="43" width="137" height="20" as="geometry">
            <mxRectangle width="137" height="20" as="alternateBounds" />
          </mxGeometry>
        </mxCell>
        <mxCell id="UXmly0hNfvdbmVREp-n4-101" value="&lt;b&gt;&lt;font style=&quot;font-size: 24px;&quot;&gt;ADD types&lt;br&gt;composite key&lt;br&gt;acmg rules&lt;br&gt;- conditions&lt;br&gt;&lt;br&gt;Too low-level&lt;br&gt;&lt;/font&gt;&lt;/b&gt;" style="text;html=1;align=center;verticalAlign=middle;resizable=0;points=[];autosize=1;strokeColor=none;fillColor=none;" parent="1" vertex="1">
          <mxGeometry x="20" y="-330" width="190" height="190" as="geometry" />
        </mxCell>
        <mxCell id="UXmly0hNfvdbmVREp-n4-102" value="ExternalReferences" style="shape=table;startSize=30;container=1;collapsible=1;childLayout=tableLayout;fixedRows=1;rowLines=0;fontStyle=1;align=center;resizeLast=1;html=1;whiteSpace=wrap;" parent="1" vertex="1">
          <mxGeometry x="370" y="210" width="180" height="150" as="geometry" />
        </mxCell>
        <mxCell id="UXmly0hNfvdbmVREp-n4-103" value="" style="shape=tableRow;horizontal=0;startSize=0;swimlaneHead=0;swimlaneBody=0;fillColor=none;collapsible=0;dropTarget=0;points=[[0,0.5],[1,0.5]];portConstraint=eastwest;top=0;left=0;right=0;bottom=0;html=1;" parent="UXmly0hNfvdbmVREp-n4-102" vertex="1">
          <mxGeometry y="30" width="180" height="30" as="geometry" />
        </mxCell>
        <mxCell id="UXmly0hNfvdbmVREp-n4-104" value="PK" style="shape=partialRectangle;connectable=0;fillColor=none;top=0;left=0;bottom=0;right=0;fontStyle=1;overflow=hidden;html=1;whiteSpace=wrap;" parent="UXmly0hNfvdbmVREp-n4-103" vertex="1">
          <mxGeometry width="60" height="30" as="geometry">
            <mxRectangle width="60" height="30" as="alternateBounds" />
          </mxGeometry>
        </mxCell>
        <mxCell id="UXmly0hNfvdbmVREp-n4-105" value="variantId" style="shape=partialRectangle;connectable=0;fillColor=none;top=0;left=0;bottom=0;right=0;align=left;spacingLeft=6;fontStyle=5;overflow=hidden;html=1;whiteSpace=wrap;" parent="UXmly0hNfvdbmVREp-n4-103" vertex="1">
          <mxGeometry x="60" width="120" height="30" as="geometry">
            <mxRectangle width="120" height="30" as="alternateBounds" />
          </mxGeometry>
        </mxCell>
        <mxCell id="UXmly0hNfvdbmVREp-n4-106" value="" style="shape=tableRow;horizontal=0;startSize=0;swimlaneHead=0;swimlaneBody=0;fillColor=none;collapsible=0;dropTarget=0;points=[[0,0.5],[1,0.5]];portConstraint=eastwest;top=0;left=0;right=0;bottom=1;html=1;" parent="UXmly0hNfvdbmVREp-n4-102" vertex="1">
          <mxGeometry y="60" width="180" height="30" as="geometry" />
        </mxCell>
        <mxCell id="UXmly0hNfvdbmVREp-n4-107" value="PK" style="shape=partialRectangle;connectable=0;fillColor=none;top=0;left=0;bottom=0;right=0;fontStyle=1;overflow=hidden;html=1;whiteSpace=wrap;" parent="UXmly0hNfvdbmVREp-n4-106" vertex="1">
          <mxGeometry width="60" height="30" as="geometry">
            <mxRectangle width="60" height="30" as="alternateBounds" />
          </mxGeometry>
        </mxCell>
        <mxCell id="UXmly0hNfvdbmVREp-n4-108" value="gene" style="shape=partialRectangle;connectable=0;fillColor=none;top=0;left=0;bottom=0;right=0;align=left;spacingLeft=6;fontStyle=5;overflow=hidden;html=1;whiteSpace=wrap;" parent="UXmly0hNfvdbmVREp-n4-106" vertex="1">
          <mxGeometry x="60" width="120" height="30" as="geometry">
            <mxRectangle width="120" height="30" as="alternateBounds" />
          </mxGeometry>
        </mxCell>
        <mxCell id="UXmly0hNfvdbmVREp-n4-109" value="" style="shape=tableRow;horizontal=0;startSize=0;swimlaneHead=0;swimlaneBody=0;fillColor=none;collapsible=0;dropTarget=0;points=[[0,0.5],[1,0.5]];portConstraint=eastwest;top=0;left=0;right=0;bottom=0;html=1;" parent="UXmly0hNfvdbmVREp-n4-102" vertex="1">
          <mxGeometry y="90" width="180" height="30" as="geometry" />
        </mxCell>
        <mxCell id="UXmly0hNfvdbmVREp-n4-110" value="&lt;b&gt;FK&lt;/b&gt;" style="shape=partialRectangle;connectable=0;fillColor=none;top=0;left=0;bottom=0;right=0;editable=1;overflow=hidden;html=1;whiteSpace=wrap;" parent="UXmly0hNfvdbmVREp-n4-109" vertex="1">
          <mxGeometry width="60" height="30" as="geometry">
            <mxRectangle width="60" height="30" as="alternateBounds" />
          </mxGeometry>
        </mxCell>
        <mxCell id="UXmly0hNfvdbmVREp-n4-111" value="clinVarId" style="shape=partialRectangle;connectable=0;fillColor=none;top=0;left=0;bottom=0;right=0;align=left;spacingLeft=6;overflow=hidden;html=1;whiteSpace=wrap;" parent="UXmly0hNfvdbmVREp-n4-109" vertex="1">
          <mxGeometry x="60" width="120" height="30" as="geometry">
            <mxRectangle width="120" height="30" as="alternateBounds" />
          </mxGeometry>
        </mxCell>
        <mxCell id="UXmly0hNfvdbmVREp-n4-112" value="" style="shape=tableRow;horizontal=0;startSize=0;swimlaneHead=0;swimlaneBody=0;fillColor=none;collapsible=0;dropTarget=0;points=[[0,0.5],[1,0.5]];portConstraint=eastwest;top=0;left=0;right=0;bottom=0;html=1;" parent="UXmly0hNfvdbmVREp-n4-102" vertex="1">
          <mxGeometry y="120" width="180" height="30" as="geometry" />
        </mxCell>
        <mxCell id="UXmly0hNfvdbmVREp-n4-113" value="&lt;b&gt;FK&lt;/b&gt;" style="shape=partialRectangle;connectable=0;fillColor=none;top=0;left=0;bottom=0;right=0;editable=1;overflow=hidden;html=1;whiteSpace=wrap;" parent="UXmly0hNfvdbmVREp-n4-112" vertex="1">
          <mxGeometry width="60" height="30" as="geometry">
            <mxRectangle width="60" height="30" as="alternateBounds" />
          </mxGeometry>
        </mxCell>
        <mxCell id="UXmly0hNfvdbmVREp-n4-114" value="dbSnpId" style="shape=partialRectangle;connectable=0;fillColor=none;top=0;left=0;bottom=0;right=0;align=left;spacingLeft=6;overflow=hidden;html=1;whiteSpace=wrap;" parent="UXmly0hNfvdbmVREp-n4-112" vertex="1">
          <mxGeometry x="60" width="120" height="30" as="geometry">
            <mxRectangle width="120" height="30" as="alternateBounds" />
          </mxGeometry>
        </mxCell>
        <mxCell id="UXmly0hNfvdbmVREp-n4-115" value="dbSnp" style="shape=table;startSize=30;container=1;collapsible=1;childLayout=tableLayout;fixedRows=1;rowLines=0;fontStyle=1;align=center;resizeLast=1;html=1;" parent="1" vertex="1">
          <mxGeometry x="647" y="410" width="180" height="120" as="geometry" />
        </mxCell>
        <mxCell id="UXmly0hNfvdbmVREp-n4-116" value="" style="shape=tableRow;horizontal=0;startSize=0;swimlaneHead=0;swimlaneBody=0;fillColor=none;collapsible=0;dropTarget=0;points=[[0,0.5],[1,0.5]];portConstraint=eastwest;top=0;left=0;right=0;bottom=1;" parent="UXmly0hNfvdbmVREp-n4-115" vertex="1">
          <mxGeometry y="30" width="180" height="30" as="geometry" />
        </mxCell>
        <mxCell id="UXmly0hNfvdbmVREp-n4-117" value="PK" style="shape=partialRectangle;connectable=0;fillColor=none;top=0;left=0;bottom=0;right=0;fontStyle=1;overflow=hidden;whiteSpace=wrap;html=1;" parent="UXmly0hNfvdbmVREp-n4-116" vertex="1">
          <mxGeometry width="43" height="30" as="geometry">
            <mxRectangle width="43" height="30" as="alternateBounds" />
          </mxGeometry>
        </mxCell>
        <mxCell id="UXmly0hNfvdbmVREp-n4-118" value="dbSnpId" style="shape=partialRectangle;connectable=0;fillColor=none;top=0;left=0;bottom=0;right=0;align=left;spacingLeft=6;fontStyle=5;overflow=hidden;whiteSpace=wrap;html=1;" parent="UXmly0hNfvdbmVREp-n4-116" vertex="1">
          <mxGeometry x="43" width="137" height="30" as="geometry">
            <mxRectangle width="137" height="30" as="alternateBounds" />
          </mxGeometry>
        </mxCell>
        <mxCell id="UXmly0hNfvdbmVREp-n4-119" value="" style="shape=tableRow;horizontal=0;startSize=0;swimlaneHead=0;swimlaneBody=0;fillColor=none;collapsible=0;dropTarget=0;points=[[0,0.5],[1,0.5]];portConstraint=eastwest;top=0;left=0;right=0;bottom=0;" parent="UXmly0hNfvdbmVREp-n4-115" vertex="1">
          <mxGeometry y="60" width="180" height="30" as="geometry" />
        </mxCell>
        <mxCell id="UXmly0hNfvdbmVREp-n4-120" value="text" style="shape=partialRectangle;connectable=0;fillColor=none;top=0;left=0;bottom=0;right=0;editable=1;overflow=hidden;whiteSpace=wrap;html=1;" parent="UXmly0hNfvdbmVREp-n4-119" vertex="1">
          <mxGeometry width="43" height="30" as="geometry">
            <mxRectangle width="43" height="30" as="alternateBounds" />
          </mxGeometry>
        </mxCell>
        <mxCell id="UXmly0hNfvdbmVREp-n4-121" value="rsid" style="shape=partialRectangle;connectable=0;fillColor=none;top=0;left=0;bottom=0;right=0;align=left;spacingLeft=6;overflow=hidden;whiteSpace=wrap;html=1;" parent="UXmly0hNfvdbmVREp-n4-119" vertex="1">
          <mxGeometry x="43" width="137" height="30" as="geometry">
            <mxRectangle width="137" height="30" as="alternateBounds" />
          </mxGeometry>
        </mxCell>
        <mxCell id="UXmly0hNfvdbmVREp-n4-122" value="" style="shape=tableRow;horizontal=0;startSize=0;swimlaneHead=0;swimlaneBody=0;fillColor=none;collapsible=0;dropTarget=0;points=[[0,0.5],[1,0.5]];portConstraint=eastwest;top=0;left=0;right=0;bottom=0;" parent="UXmly0hNfvdbmVREp-n4-115" vertex="1">
          <mxGeometry y="90" width="180" height="30" as="geometry" />
        </mxCell>
        <mxCell id="UXmly0hNfvdbmVREp-n4-123" value="text" style="shape=partialRectangle;connectable=0;fillColor=none;top=0;left=0;bottom=0;right=0;editable=1;overflow=hidden;whiteSpace=wrap;html=1;" parent="UXmly0hNfvdbmVREp-n4-122" vertex="1">
          <mxGeometry width="43" height="30" as="geometry">
            <mxRectangle width="43" height="30" as="alternateBounds" />
          </mxGeometry>
        </mxCell>
        <mxCell id="UXmly0hNfvdbmVREp-n4-124" value="errorMsg" style="shape=partialRectangle;connectable=0;fillColor=none;top=0;left=0;bottom=0;right=0;align=left;spacingLeft=6;overflow=hidden;whiteSpace=wrap;html=1;" parent="UXmly0hNfvdbmVREp-n4-122" vertex="1">
          <mxGeometry x="43" width="137" height="30" as="geometry">
            <mxRectangle width="137" height="30" as="alternateBounds" />
          </mxGeometry>
        </mxCell>
        <mxCell id="UXmly0hNfvdbmVREp-n4-125" value="" style="edgeStyle=entityRelationEdgeStyle;fontSize=12;html=1;endArrow=ERmandOne;startArrow=ERmandOne;rounded=0;entryX=0;entryY=0.5;entryDx=0;entryDy=0;exitX=1;exitY=0.5;exitDx=0;exitDy=0;" parent="1" source="UXmly0hNfvdbmVREp-n4-109" target="UXmly0hNfvdbmVREp-n4-53" edge="1">
          <mxGeometry width="100" height="100" relative="1" as="geometry">
            <mxPoint x="470" y="460" as="sourcePoint" />
            <mxPoint x="570" y="360" as="targetPoint" />
          </mxGeometry>
        </mxCell>
        <mxCell id="UXmly0hNfvdbmVREp-n4-126" value="" style="edgeStyle=entityRelationEdgeStyle;fontSize=12;html=1;endArrow=ERmandOne;startArrow=ERmandOne;rounded=0;entryX=0;entryY=0.5;entryDx=0;entryDy=0;exitX=1;exitY=0.5;exitDx=0;exitDy=0;" parent="1" source="UXmly0hNfvdbmVREp-n4-112" target="UXmly0hNfvdbmVREp-n4-116" edge="1">
          <mxGeometry width="100" height="100" relative="1" as="geometry">
            <mxPoint x="470" y="560" as="sourcePoint" />
            <mxPoint x="570" y="460" as="targetPoint" />
          </mxGeometry>
        </mxCell>
        <mxCell id="UXmly0hNfvdbmVREp-n4-128" value="" style="edgeStyle=entityRelationEdgeStyle;fontSize=12;html=1;endArrow=ERzeroToMany;startArrow=ERmandOne;rounded=0;exitX=0.997;exitY=0.036;exitDx=0;exitDy=0;exitPerimeter=0;entryX=-0.001;entryY=0.088;entryDx=0;entryDy=0;entryPerimeter=0;" parent="1" source="UXmly0hNfvdbmVREp-n4-1" target="UXmly0hNfvdbmVREp-n4-102" edge="1">
          <mxGeometry width="100" height="100" relative="1" as="geometry">
            <mxPoint x="400" y="460" as="sourcePoint" />
            <mxPoint x="500" y="360" as="targetPoint" />
          </mxGeometry>
        </mxCell>
        <mxCell id="UXmly0hNfvdbmVREp-n4-129" value="Samples" style="shape=table;startSize=30;container=1;collapsible=1;childLayout=tableLayout;fixedRows=1;rowLines=0;fontStyle=1;align=center;resizeLast=1;html=1;" parent="1" vertex="1">
          <mxGeometry x="70" y="-50" width="200" height="120" as="geometry" />
        </mxCell>
        <mxCell id="UXmly0hNfvdbmVREp-n4-130" value="" style="shape=tableRow;horizontal=0;startSize=0;swimlaneHead=0;swimlaneBody=0;fillColor=none;collapsible=0;dropTarget=0;points=[[0,0.5],[1,0.5]];portConstraint=eastwest;top=0;left=0;right=0;bottom=1;" parent="UXmly0hNfvdbmVREp-n4-129" vertex="1">
          <mxGeometry y="30" width="200" height="30" as="geometry" />
        </mxCell>
        <mxCell id="UXmly0hNfvdbmVREp-n4-131" value="PK" style="shape=partialRectangle;connectable=0;fillColor=none;top=0;left=0;bottom=0;right=0;fontStyle=1;overflow=hidden;whiteSpace=wrap;html=1;" parent="UXmly0hNfvdbmVREp-n4-130" vertex="1">
          <mxGeometry width="60" height="30" as="geometry">
            <mxRectangle width="60" height="30" as="alternateBounds" />
          </mxGeometry>
        </mxCell>
        <mxCell id="UXmly0hNfvdbmVREp-n4-132" value="sampleId" style="shape=partialRectangle;connectable=0;fillColor=none;top=0;left=0;bottom=0;right=0;align=left;spacingLeft=6;fontStyle=5;overflow=hidden;whiteSpace=wrap;html=1;" parent="UXmly0hNfvdbmVREp-n4-130" vertex="1">
          <mxGeometry x="60" width="140" height="30" as="geometry">
            <mxRectangle width="140" height="30" as="alternateBounds" />
          </mxGeometry>
        </mxCell>
        <mxCell id="UXmly0hNfvdbmVREp-n4-133" value="" style="shape=tableRow;horizontal=0;startSize=0;swimlaneHead=0;swimlaneBody=0;fillColor=none;collapsible=0;dropTarget=0;points=[[0,0.5],[1,0.5]];portConstraint=eastwest;top=0;left=0;right=0;bottom=0;" parent="UXmly0hNfvdbmVREp-n4-129" vertex="1">
          <mxGeometry y="60" width="200" height="30" as="geometry" />
        </mxCell>
        <mxCell id="UXmly0hNfvdbmVREp-n4-134" value="dateTime" style="shape=partialRectangle;connectable=0;fillColor=none;top=0;left=0;bottom=0;right=0;editable=1;overflow=hidden;whiteSpace=wrap;html=1;" parent="UXmly0hNfvdbmVREp-n4-133" vertex="1">
          <mxGeometry width="60" height="30" as="geometry">
            <mxRectangle width="60" height="30" as="alternateBounds" />
          </mxGeometry>
        </mxCell>
        <mxCell id="UXmly0hNfvdbmVREp-n4-135" value="dateCollected" style="shape=partialRectangle;connectable=0;fillColor=none;top=0;left=0;bottom=0;right=0;align=left;spacingLeft=6;overflow=hidden;whiteSpace=wrap;html=1;" parent="UXmly0hNfvdbmVREp-n4-133" vertex="1">
          <mxGeometry x="60" width="140" height="30" as="geometry">
            <mxRectangle width="140" height="30" as="alternateBounds" />
          </mxGeometry>
        </mxCell>
        <mxCell id="UXmly0hNfvdbmVREp-n4-136" value="" style="shape=tableRow;horizontal=0;startSize=0;swimlaneHead=0;swimlaneBody=0;fillColor=none;collapsible=0;dropTarget=0;points=[[0,0.5],[1,0.5]];portConstraint=eastwest;top=0;left=0;right=0;bottom=0;" parent="UXmly0hNfvdbmVREp-n4-129" vertex="1">
          <mxGeometry y="90" width="200" height="30" as="geometry" />
        </mxCell>
        <mxCell id="UXmly0hNfvdbmVREp-n4-137" value="text" style="shape=partialRectangle;connectable=0;fillColor=none;top=0;left=0;bottom=0;right=0;editable=1;overflow=hidden;whiteSpace=wrap;html=1;" parent="UXmly0hNfvdbmVREp-n4-136" vertex="1">
          <mxGeometry width="60" height="30" as="geometry">
            <mxRectangle width="60" height="30" as="alternateBounds" />
          </mxGeometry>
        </mxCell>
        <mxCell id="UXmly0hNfvdbmVREp-n4-138" value="description" style="shape=partialRectangle;connectable=0;fillColor=none;top=0;left=0;bottom=0;right=0;align=left;spacingLeft=6;overflow=hidden;whiteSpace=wrap;html=1;" parent="UXmly0hNfvdbmVREp-n4-136" vertex="1">
          <mxGeometry x="60" width="140" height="30" as="geometry">
            <mxRectangle width="140" height="30" as="alternateBounds" />
          </mxGeometry>
        </mxCell>
        <mxCell id="UXmly0hNfvdbmVREp-n4-185" value="" style="edgeStyle=entityRelationEdgeStyle;fontSize=12;html=1;endArrow=ERmandOne;startArrow=ERmandOne;rounded=0;entryX=0;entryY=0.5;entryDx=0;entryDy=0;exitX=1;exitY=0.5;exitDx=0;exitDy=0;" parent="1" source="UXmly0hNfvdbmVREp-n4-243" target="UXmly0hNfvdbmVREp-n4-2" edge="1">
          <mxGeometry width="100" height="100" relative="1" as="geometry">
            <mxPoint x="-20" y="115" as="sourcePoint" />
            <mxPoint x="40" y="280" as="targetPoint" />
          </mxGeometry>
        </mxCell>
        <mxCell id="UXmly0hNfvdbmVREp-n4-186" value="" style="edgeStyle=entityRelationEdgeStyle;fontSize=12;html=1;endArrow=ERmandOne;startArrow=ERmandOne;rounded=0;exitX=1;exitY=0.5;exitDx=0;exitDy=0;entryX=0;entryY=0.5;entryDx=0;entryDy=0;" parent="1" source="UXmly0hNfvdbmVREp-n4-240" target="UXmly0hNfvdbmVREp-n4-130" edge="1">
          <mxGeometry width="100" height="100" relative="1" as="geometry">
            <mxPoint x="-20" y="85" as="sourcePoint" />
            <mxPoint x="40" y="100" as="targetPoint" />
          </mxGeometry>
        </mxCell>
        <mxCell id="UXmly0hNfvdbmVREp-n4-203" value="Publication" style="shape=table;startSize=30;container=1;collapsible=1;childLayout=tableLayout;fixedRows=1;rowLines=0;fontStyle=1;align=center;resizeLast=1;html=1;" parent="1" vertex="1">
          <mxGeometry x="70" y="500" width="200" height="240" as="geometry">
            <mxRectangle x="70" y="150" width="80" height="30" as="alternateBounds" />
          </mxGeometry>
        </mxCell>
        <mxCell id="UXmly0hNfvdbmVREp-n4-204" value="" style="shape=tableRow;horizontal=0;startSize=0;swimlaneHead=0;swimlaneBody=0;fillColor=none;collapsible=0;dropTarget=0;points=[[0,0.5],[1,0.5]];portConstraint=eastwest;top=0;left=0;right=0;bottom=1;" parent="UXmly0hNfvdbmVREp-n4-203" vertex="1">
          <mxGeometry y="30" width="200" height="30" as="geometry" />
        </mxCell>
        <mxCell id="UXmly0hNfvdbmVREp-n4-205" value="PK" style="shape=partialRectangle;connectable=0;fillColor=none;top=0;left=0;bottom=0;right=0;fontStyle=1;overflow=hidden;whiteSpace=wrap;html=1;" parent="UXmly0hNfvdbmVREp-n4-204" vertex="1">
          <mxGeometry width="60" height="30" as="geometry">
            <mxRectangle width="60" height="30" as="alternateBounds" />
          </mxGeometry>
        </mxCell>
        <mxCell id="UXmly0hNfvdbmVREp-n4-206" value="pmid" style="shape=partialRectangle;connectable=0;fillColor=none;top=0;left=0;bottom=0;right=0;align=left;spacingLeft=6;fontStyle=5;overflow=hidden;whiteSpace=wrap;html=1;" parent="UXmly0hNfvdbmVREp-n4-204" vertex="1">
          <mxGeometry x="60" width="140" height="30" as="geometry">
            <mxRectangle width="140" height="30" as="alternateBounds" />
          </mxGeometry>
        </mxCell>
        <mxCell id="UXmly0hNfvdbmVREp-n4-231" style="shape=tableRow;horizontal=0;startSize=0;swimlaneHead=0;swimlaneBody=0;fillColor=none;collapsible=0;dropTarget=0;points=[[0,0.5],[1,0.5]];portConstraint=eastwest;top=0;left=0;right=0;bottom=0;" parent="UXmly0hNfvdbmVREp-n4-203" vertex="1">
          <mxGeometry y="60" width="200" height="30" as="geometry" />
        </mxCell>
        <mxCell id="UXmly0hNfvdbmVREp-n4-232" value="text" style="shape=partialRectangle;connectable=0;fillColor=none;top=0;left=0;bottom=0;right=0;editable=1;overflow=hidden;whiteSpace=wrap;html=1;" parent="UXmly0hNfvdbmVREp-n4-231" vertex="1">
          <mxGeometry width="60" height="30" as="geometry">
            <mxRectangle width="60" height="30" as="alternateBounds" />
          </mxGeometry>
        </mxCell>
        <mxCell id="UXmly0hNfvdbmVREp-n4-233" value="title" style="shape=partialRectangle;connectable=0;fillColor=none;top=0;left=0;bottom=0;right=0;align=left;spacingLeft=6;overflow=hidden;whiteSpace=wrap;html=1;" parent="UXmly0hNfvdbmVREp-n4-231" vertex="1">
          <mxGeometry x="60" width="140" height="30" as="geometry">
            <mxRectangle width="140" height="30" as="alternateBounds" />
          </mxGeometry>
        </mxCell>
        <mxCell id="UXmly0hNfvdbmVREp-n4-207" value="" style="shape=tableRow;horizontal=0;startSize=0;swimlaneHead=0;swimlaneBody=0;fillColor=none;collapsible=0;dropTarget=0;points=[[0,0.5],[1,0.5]];portConstraint=eastwest;top=0;left=0;right=0;bottom=0;" parent="UXmly0hNfvdbmVREp-n4-203" vertex="1">
          <mxGeometry y="90" width="200" height="30" as="geometry" />
        </mxCell>
        <mxCell id="UXmly0hNfvdbmVREp-n4-208" value="text" style="shape=partialRectangle;connectable=0;fillColor=none;top=0;left=0;bottom=0;right=0;editable=1;overflow=hidden;whiteSpace=wrap;html=1;" parent="UXmly0hNfvdbmVREp-n4-207" vertex="1">
          <mxGeometry width="60" height="30" as="geometry">
            <mxRectangle width="60" height="30" as="alternateBounds" />
          </mxGeometry>
        </mxCell>
        <mxCell id="UXmly0hNfvdbmVREp-n4-209" value="abstract" style="shape=partialRectangle;connectable=0;fillColor=none;top=0;left=0;bottom=0;right=0;align=left;spacingLeft=6;overflow=hidden;whiteSpace=wrap;html=1;" parent="UXmly0hNfvdbmVREp-n4-207" vertex="1">
          <mxGeometry x="60" width="140" height="30" as="geometry">
            <mxRectangle width="140" height="30" as="alternateBounds" />
          </mxGeometry>
        </mxCell>
        <mxCell id="UXmly0hNfvdbmVREp-n4-210" value="" style="shape=tableRow;horizontal=0;startSize=0;swimlaneHead=0;swimlaneBody=0;fillColor=none;collapsible=0;dropTarget=0;points=[[0,0.5],[1,0.5]];portConstraint=eastwest;top=0;left=0;right=0;bottom=0;" parent="UXmly0hNfvdbmVREp-n4-203" vertex="1">
          <mxGeometry y="120" width="200" height="30" as="geometry" />
        </mxCell>
        <mxCell id="UXmly0hNfvdbmVREp-n4-211" value="text" style="shape=partialRectangle;connectable=0;fillColor=none;top=0;left=0;bottom=0;right=0;editable=1;overflow=hidden;whiteSpace=wrap;html=1;" parent="UXmly0hNfvdbmVREp-n4-210" vertex="1">
          <mxGeometry width="60" height="30" as="geometry">
            <mxRectangle width="60" height="30" as="alternateBounds" />
          </mxGeometry>
        </mxCell>
        <mxCell id="UXmly0hNfvdbmVREp-n4-212" value="journal" style="shape=partialRectangle;connectable=0;fillColor=none;top=0;left=0;bottom=0;right=0;align=left;spacingLeft=6;overflow=hidden;whiteSpace=wrap;html=1;" parent="UXmly0hNfvdbmVREp-n4-210" vertex="1">
          <mxGeometry x="60" width="140" height="30" as="geometry">
            <mxRectangle width="140" height="30" as="alternateBounds" />
          </mxGeometry>
        </mxCell>
        <mxCell id="UXmly0hNfvdbmVREp-n4-213" style="shape=tableRow;horizontal=0;startSize=0;swimlaneHead=0;swimlaneBody=0;fillColor=none;collapsible=0;dropTarget=0;points=[[0,0.5],[1,0.5]];portConstraint=eastwest;top=0;left=0;right=0;bottom=0;" parent="UXmly0hNfvdbmVREp-n4-203" vertex="1">
          <mxGeometry y="150" width="200" height="30" as="geometry" />
        </mxCell>
        <mxCell id="UXmly0hNfvdbmVREp-n4-214" value="date" style="shape=partialRectangle;connectable=0;fillColor=none;top=0;left=0;bottom=0;right=0;editable=1;overflow=hidden;whiteSpace=wrap;html=1;" parent="UXmly0hNfvdbmVREp-n4-213" vertex="1">
          <mxGeometry width="60" height="30" as="geometry">
            <mxRectangle width="60" height="30" as="alternateBounds" />
          </mxGeometry>
        </mxCell>
        <mxCell id="UXmly0hNfvdbmVREp-n4-215" value="datePublished" style="shape=partialRectangle;connectable=0;fillColor=none;top=0;left=0;bottom=0;right=0;align=left;spacingLeft=6;overflow=hidden;whiteSpace=wrap;html=1;" parent="UXmly0hNfvdbmVREp-n4-213" vertex="1">
          <mxGeometry x="60" width="140" height="30" as="geometry">
            <mxRectangle width="140" height="30" as="alternateBounds" />
          </mxGeometry>
        </mxCell>
        <mxCell id="UXmly0hNfvdbmVREp-n4-216" style="shape=tableRow;horizontal=0;startSize=0;swimlaneHead=0;swimlaneBody=0;fillColor=none;collapsible=0;dropTarget=0;points=[[0,0.5],[1,0.5]];portConstraint=eastwest;top=0;left=0;right=0;bottom=0;" parent="UXmly0hNfvdbmVREp-n4-203" vertex="1">
          <mxGeometry y="180" width="200" height="30" as="geometry" />
        </mxCell>
        <mxCell id="UXmly0hNfvdbmVREp-n4-217" value="text" style="shape=partialRectangle;connectable=0;fillColor=none;top=0;left=0;bottom=0;right=0;editable=1;overflow=hidden;whiteSpace=wrap;html=1;" parent="UXmly0hNfvdbmVREp-n4-216" vertex="1">
          <mxGeometry width="60" height="30" as="geometry">
            <mxRectangle width="60" height="30" as="alternateBounds" />
          </mxGeometry>
        </mxCell>
        <mxCell id="UXmly0hNfvdbmVREp-n4-218" value="matchInSupMaterial" style="shape=partialRectangle;connectable=0;fillColor=none;top=0;left=0;bottom=0;right=0;align=left;spacingLeft=6;overflow=hidden;whiteSpace=wrap;html=1;" parent="UXmly0hNfvdbmVREp-n4-216" vertex="1">
          <mxGeometry x="60" width="140" height="30" as="geometry">
            <mxRectangle width="140" height="30" as="alternateBounds" />
          </mxGeometry>
        </mxCell>
        <mxCell id="UXmly0hNfvdbmVREp-n4-236" style="shape=tableRow;horizontal=0;startSize=0;swimlaneHead=0;swimlaneBody=0;fillColor=none;collapsible=0;dropTarget=0;points=[[0,0.5],[1,0.5]];portConstraint=eastwest;top=0;left=0;right=0;bottom=0;" parent="UXmly0hNfvdbmVREp-n4-203" vertex="1">
          <mxGeometry y="210" width="200" height="30" as="geometry" />
        </mxCell>
        <mxCell id="UXmly0hNfvdbmVREp-n4-237" value="text[]" style="shape=partialRectangle;connectable=0;fillColor=none;top=0;left=0;bottom=0;right=0;editable=1;overflow=hidden;whiteSpace=wrap;html=1;" parent="UXmly0hNfvdbmVREp-n4-236" vertex="1">
          <mxGeometry width="60" height="30" as="geometry">
            <mxRectangle width="60" height="30" as="alternateBounds" />
          </mxGeometry>
        </mxCell>
        <mxCell id="UXmly0hNfvdbmVREp-n4-238" value="highlightedText" style="shape=partialRectangle;connectable=0;fillColor=none;top=0;left=0;bottom=0;right=0;align=left;spacingLeft=6;overflow=hidden;whiteSpace=wrap;html=1;" parent="UXmly0hNfvdbmVREp-n4-236" vertex="1">
          <mxGeometry x="60" width="140" height="30" as="geometry">
            <mxRectangle width="140" height="30" as="alternateBounds" />
          </mxGeometry>
        </mxCell>
        <mxCell id="UXmly0hNfvdbmVREp-n4-234" value="" style="edgeStyle=entityRelationEdgeStyle;fontSize=12;html=1;endArrow=ERmandOne;startArrow=ERmandOne;rounded=0;entryX=0;entryY=0.5;entryDx=0;entryDy=0;exitX=1;exitY=0.5;exitDx=0;exitDy=0;" parent="1" source="UXmly0hNfvdbmVREp-n4-259" target="UXmly0hNfvdbmVREp-n4-204" edge="1">
          <mxGeometry width="100" height="100" relative="1" as="geometry">
            <mxPoint x="-20" y="505" as="sourcePoint" />
            <mxPoint x="100" y="570" as="targetPoint" />
          </mxGeometry>
        </mxCell>
        <mxCell id="UXmly0hNfvdbmVREp-n4-235" value="" style="edgeStyle=entityRelationEdgeStyle;fontSize=12;html=1;endArrow=ERmandOne;startArrow=ERmandOne;rounded=0;entryX=0;entryY=0.5;entryDx=0;entryDy=0;exitX=1;exitY=0.5;exitDx=0;exitDy=0;" parent="1" source="UXmly0hNfvdbmVREp-n4-256" target="UXmly0hNfvdbmVREp-n4-46" edge="1">
          <mxGeometry width="100" height="100" relative="1" as="geometry">
            <mxPoint x="-20" y="475" as="sourcePoint" />
            <mxPoint x="80" y="555" as="targetPoint" />
          </mxGeometry>
        </mxCell>
        <mxCell id="UXmly0hNfvdbmVREp-n4-239" value="SampleVariant" style="shape=table;startSize=30;container=1;collapsible=1;childLayout=tableLayout;fixedRows=1;rowLines=0;fontStyle=1;align=center;resizeLast=1;html=1;whiteSpace=wrap;" parent="1" vertex="1">
          <mxGeometry x="-200" y="40" width="180" height="120" as="geometry" />
        </mxCell>
        <mxCell id="UXmly0hNfvdbmVREp-n4-240" value="" style="shape=tableRow;horizontal=0;startSize=0;swimlaneHead=0;swimlaneBody=0;fillColor=none;collapsible=0;dropTarget=0;points=[[0,0.5],[1,0.5]];portConstraint=eastwest;top=0;left=0;right=0;bottom=0;html=1;" parent="UXmly0hNfvdbmVREp-n4-239" vertex="1">
          <mxGeometry y="30" width="180" height="30" as="geometry" />
        </mxCell>
        <mxCell id="UXmly0hNfvdbmVREp-n4-241" value="PK" style="shape=partialRectangle;connectable=0;fillColor=none;top=0;left=0;bottom=0;right=0;fontStyle=1;overflow=hidden;html=1;whiteSpace=wrap;" parent="UXmly0hNfvdbmVREp-n4-240" vertex="1">
          <mxGeometry width="60" height="30" as="geometry">
            <mxRectangle width="60" height="30" as="alternateBounds" />
          </mxGeometry>
        </mxCell>
        <mxCell id="UXmly0hNfvdbmVREp-n4-242" value="patientId" style="shape=partialRectangle;connectable=0;fillColor=none;top=0;left=0;bottom=0;right=0;align=left;spacingLeft=6;fontStyle=5;overflow=hidden;html=1;whiteSpace=wrap;" parent="UXmly0hNfvdbmVREp-n4-240" vertex="1">
          <mxGeometry x="60" width="120" height="30" as="geometry">
            <mxRectangle width="120" height="30" as="alternateBounds" />
          </mxGeometry>
        </mxCell>
        <mxCell id="UXmly0hNfvdbmVREp-n4-243" value="" style="shape=tableRow;horizontal=0;startSize=0;swimlaneHead=0;swimlaneBody=0;fillColor=none;collapsible=0;dropTarget=0;points=[[0,0.5],[1,0.5]];portConstraint=eastwest;top=0;left=0;right=0;bottom=1;html=1;" parent="UXmly0hNfvdbmVREp-n4-239" vertex="1">
          <mxGeometry y="60" width="180" height="30" as="geometry" />
        </mxCell>
        <mxCell id="UXmly0hNfvdbmVREp-n4-244" value="PK" style="shape=partialRectangle;connectable=0;fillColor=none;top=0;left=0;bottom=0;right=0;fontStyle=1;overflow=hidden;html=1;whiteSpace=wrap;" parent="UXmly0hNfvdbmVREp-n4-243" vertex="1">
          <mxGeometry width="60" height="30" as="geometry">
            <mxRectangle width="60" height="30" as="alternateBounds" />
          </mxGeometry>
        </mxCell>
        <mxCell id="UXmly0hNfvdbmVREp-n4-245" value="variantId" style="shape=partialRectangle;connectable=0;fillColor=none;top=0;left=0;bottom=0;right=0;align=left;spacingLeft=6;fontStyle=5;overflow=hidden;html=1;whiteSpace=wrap;" parent="UXmly0hNfvdbmVREp-n4-243" vertex="1">
          <mxGeometry x="60" width="120" height="30" as="geometry">
            <mxRectangle width="120" height="30" as="alternateBounds" />
          </mxGeometry>
        </mxCell>
        <mxCell id="UXmly0hNfvdbmVREp-n4-246" value="" style="shape=tableRow;horizontal=0;startSize=0;swimlaneHead=0;swimlaneBody=0;fillColor=none;collapsible=0;dropTarget=0;points=[[0,0.5],[1,0.5]];portConstraint=eastwest;top=0;left=0;right=0;bottom=0;html=1;" parent="UXmly0hNfvdbmVREp-n4-239" vertex="1">
          <mxGeometry y="90" width="180" height="30" as="geometry" />
        </mxCell>
        <mxCell id="UXmly0hNfvdbmVREp-n4-247" value="dateTime" style="shape=partialRectangle;connectable=0;fillColor=none;top=0;left=0;bottom=0;right=0;editable=1;overflow=hidden;html=1;whiteSpace=wrap;" parent="UXmly0hNfvdbmVREp-n4-246" vertex="1">
          <mxGeometry width="60" height="30" as="geometry">
            <mxRectangle width="60" height="30" as="alternateBounds" />
          </mxGeometry>
        </mxCell>
        <mxCell id="UXmly0hNfvdbmVREp-n4-248" value="dateAdded" style="shape=partialRectangle;connectable=0;fillColor=none;top=0;left=0;bottom=0;right=0;align=left;spacingLeft=6;overflow=hidden;html=1;whiteSpace=wrap;" parent="UXmly0hNfvdbmVREp-n4-246" vertex="1">
          <mxGeometry x="60" width="120" height="30" as="geometry">
            <mxRectangle width="120" height="30" as="alternateBounds" />
          </mxGeometry>
        </mxCell>
        <mxCell id="UXmly0hNfvdbmVREp-n4-255" value="variantPublication" style="shape=table;startSize=30;container=1;collapsible=1;childLayout=tableLayout;fixedRows=1;rowLines=0;fontStyle=1;align=center;resizeLast=1;html=1;whiteSpace=wrap;" parent="1" vertex="1">
          <mxGeometry x="-200" y="430" width="180" height="120" as="geometry" />
        </mxCell>
        <mxCell id="UXmly0hNfvdbmVREp-n4-256" value="" style="shape=tableRow;horizontal=0;startSize=0;swimlaneHead=0;swimlaneBody=0;fillColor=none;collapsible=0;dropTarget=0;points=[[0,0.5],[1,0.5]];portConstraint=eastwest;top=0;left=0;right=0;bottom=0;html=1;" parent="UXmly0hNfvdbmVREp-n4-255" vertex="1">
          <mxGeometry y="30" width="180" height="30" as="geometry" />
        </mxCell>
        <mxCell id="UXmly0hNfvdbmVREp-n4-257" value="PK" style="shape=partialRectangle;connectable=0;fillColor=none;top=0;left=0;bottom=0;right=0;fontStyle=1;overflow=hidden;html=1;whiteSpace=wrap;" parent="UXmly0hNfvdbmVREp-n4-256" vertex="1">
          <mxGeometry width="60" height="30" as="geometry">
            <mxRectangle width="60" height="30" as="alternateBounds" />
          </mxGeometry>
        </mxCell>
        <mxCell id="UXmly0hNfvdbmVREp-n4-258" value="variantId" style="shape=partialRectangle;connectable=0;fillColor=none;top=0;left=0;bottom=0;right=0;align=left;spacingLeft=6;fontStyle=5;overflow=hidden;html=1;whiteSpace=wrap;" parent="UXmly0hNfvdbmVREp-n4-256" vertex="1">
          <mxGeometry x="60" width="120" height="30" as="geometry">
            <mxRectangle width="120" height="30" as="alternateBounds" />
          </mxGeometry>
        </mxCell>
        <mxCell id="UXmly0hNfvdbmVREp-n4-259" value="" style="shape=tableRow;horizontal=0;startSize=0;swimlaneHead=0;swimlaneBody=0;fillColor=none;collapsible=0;dropTarget=0;points=[[0,0.5],[1,0.5]];portConstraint=eastwest;top=0;left=0;right=0;bottom=1;html=1;" parent="UXmly0hNfvdbmVREp-n4-255" vertex="1">
          <mxGeometry y="60" width="180" height="30" as="geometry" />
        </mxCell>
        <mxCell id="UXmly0hNfvdbmVREp-n4-260" value="PK" style="shape=partialRectangle;connectable=0;fillColor=none;top=0;left=0;bottom=0;right=0;fontStyle=1;overflow=hidden;html=1;whiteSpace=wrap;" parent="UXmly0hNfvdbmVREp-n4-259" vertex="1">
          <mxGeometry width="60" height="30" as="geometry">
            <mxRectangle width="60" height="30" as="alternateBounds" />
          </mxGeometry>
        </mxCell>
        <mxCell id="UXmly0hNfvdbmVREp-n4-261" value="pmid" style="shape=partialRectangle;connectable=0;fillColor=none;top=0;left=0;bottom=0;right=0;align=left;spacingLeft=6;fontStyle=5;overflow=hidden;html=1;whiteSpace=wrap;" parent="UXmly0hNfvdbmVREp-n4-259" vertex="1">
          <mxGeometry x="60" width="120" height="30" as="geometry">
            <mxRectangle width="120" height="30" as="alternateBounds" />
          </mxGeometry>
        </mxCell>
        <mxCell id="UXmly0hNfvdbmVREp-n4-262" value="" style="shape=tableRow;horizontal=0;startSize=0;swimlaneHead=0;swimlaneBody=0;fillColor=none;collapsible=0;dropTarget=0;points=[[0,0.5],[1,0.5]];portConstraint=eastwest;top=0;left=0;right=0;bottom=0;html=1;" parent="UXmly0hNfvdbmVREp-n4-255" vertex="1">
          <mxGeometry y="90" width="180" height="30" as="geometry" />
        </mxCell>
        <mxCell id="UXmly0hNfvdbmVREp-n4-263" value="dateTime" style="shape=partialRectangle;connectable=0;fillColor=none;top=0;left=0;bottom=0;right=0;editable=1;overflow=hidden;html=1;whiteSpace=wrap;" parent="UXmly0hNfvdbmVREp-n4-262" vertex="1">
          <mxGeometry width="60" height="30" as="geometry">
            <mxRectangle width="60" height="30" as="alternateBounds" />
          </mxGeometry>
        </mxCell>
        <mxCell id="UXmly0hNfvdbmVREp-n4-264" value="dateAdded" style="shape=partialRectangle;connectable=0;fillColor=none;top=0;left=0;bottom=0;right=0;align=left;spacingLeft=6;overflow=hidden;html=1;whiteSpace=wrap;" parent="UXmly0hNfvdbmVREp-n4-262" vertex="1">
          <mxGeometry x="60" width="120" height="30" as="geometry">
            <mxRectangle width="120" height="30" as="alternateBounds" />
          </mxGeometry>
        </mxCell>
        <mxCell id="UXmly0hNfvdbmVREp-n4-268" value="ClinVarClassifications" style="shape=table;startSize=30;container=1;collapsible=1;childLayout=tableLayout;fixedRows=1;rowLines=0;fontStyle=1;align=center;resizeLast=1;html=1;" parent="1" vertex="1">
          <mxGeometry x="920" y="160" width="203" height="150" as="geometry" />
        </mxCell>
        <mxCell id="UXmly0hNfvdbmVREp-n4-269" value="" style="shape=tableRow;horizontal=0;startSize=0;swimlaneHead=0;swimlaneBody=0;fillColor=none;collapsible=0;dropTarget=0;points=[[0,0.5],[1,0.5]];portConstraint=eastwest;top=0;left=0;right=0;bottom=1;" parent="UXmly0hNfvdbmVREp-n4-268" vertex="1">
          <mxGeometry y="30" width="203" height="30" as="geometry" />
        </mxCell>
        <mxCell id="UXmly0hNfvdbmVREp-n4-270" value="PK" style="shape=partialRectangle;connectable=0;fillColor=none;top=0;left=0;bottom=0;right=0;fontStyle=1;overflow=hidden;whiteSpace=wrap;html=1;" parent="UXmly0hNfvdbmVREp-n4-269" vertex="1">
          <mxGeometry width="63" height="30" as="geometry">
            <mxRectangle width="63" height="30" as="alternateBounds" />
          </mxGeometry>
        </mxCell>
        <mxCell id="UXmly0hNfvdbmVREp-n4-271" value="classificationId" style="shape=partialRectangle;connectable=0;fillColor=none;top=0;left=0;bottom=0;right=0;align=left;spacingLeft=6;fontStyle=5;overflow=hidden;whiteSpace=wrap;html=1;" parent="UXmly0hNfvdbmVREp-n4-269" vertex="1">
          <mxGeometry x="63" width="140" height="30" as="geometry">
            <mxRectangle width="140" height="30" as="alternateBounds" />
          </mxGeometry>
        </mxCell>
        <mxCell id="UXmly0hNfvdbmVREp-n4-272" value="" style="shape=tableRow;horizontal=0;startSize=0;swimlaneHead=0;swimlaneBody=0;fillColor=none;collapsible=0;dropTarget=0;points=[[0,0.5],[1,0.5]];portConstraint=eastwest;top=0;left=0;right=0;bottom=0;" parent="UXmly0hNfvdbmVREp-n4-268" vertex="1">
          <mxGeometry y="60" width="203" height="30" as="geometry" />
        </mxCell>
        <mxCell id="UXmly0hNfvdbmVREp-n4-273" value="text" style="shape=partialRectangle;connectable=0;fillColor=none;top=0;left=0;bottom=0;right=0;editable=1;overflow=hidden;whiteSpace=wrap;html=1;" parent="UXmly0hNfvdbmVREp-n4-272" vertex="1">
          <mxGeometry width="63" height="30" as="geometry">
            <mxRectangle width="63" height="30" as="alternateBounds" />
          </mxGeometry>
        </mxCell>
        <mxCell id="UXmly0hNfvdbmVREp-n4-274" value="classification" style="shape=partialRectangle;connectable=0;fillColor=none;top=0;left=0;bottom=0;right=0;align=left;spacingLeft=6;overflow=hidden;whiteSpace=wrap;html=1;" parent="UXmly0hNfvdbmVREp-n4-272" vertex="1">
          <mxGeometry x="63" width="140" height="30" as="geometry">
            <mxRectangle width="140" height="30" as="alternateBounds" />
          </mxGeometry>
        </mxCell>
        <mxCell id="UXmly0hNfvdbmVREp-n4-275" value="" style="shape=tableRow;horizontal=0;startSize=0;swimlaneHead=0;swimlaneBody=0;fillColor=none;collapsible=0;dropTarget=0;points=[[0,0.5],[1,0.5]];portConstraint=eastwest;top=0;left=0;right=0;bottom=0;" parent="UXmly0hNfvdbmVREp-n4-268" vertex="1">
          <mxGeometry y="90" width="203" height="30" as="geometry" />
        </mxCell>
        <mxCell id="UXmly0hNfvdbmVREp-n4-276" value="dateTime" style="shape=partialRectangle;connectable=0;fillColor=none;top=0;left=0;bottom=0;right=0;editable=1;overflow=hidden;whiteSpace=wrap;html=1;" parent="UXmly0hNfvdbmVREp-n4-275" vertex="1">
          <mxGeometry width="63" height="30" as="geometry">
            <mxRectangle width="63" height="30" as="alternateBounds" />
          </mxGeometry>
        </mxCell>
        <mxCell id="UXmly0hNfvdbmVREp-n4-277" value="lastEvaluated" style="shape=partialRectangle;connectable=0;fillColor=none;top=0;left=0;bottom=0;right=0;align=left;spacingLeft=6;overflow=hidden;whiteSpace=wrap;html=1;" parent="UXmly0hNfvdbmVREp-n4-275" vertex="1">
          <mxGeometry x="63" width="140" height="30" as="geometry">
            <mxRectangle width="140" height="30" as="alternateBounds" />
          </mxGeometry>
        </mxCell>
        <mxCell id="UXmly0hNfvdbmVREp-n4-278" style="shape=tableRow;horizontal=0;startSize=0;swimlaneHead=0;swimlaneBody=0;fillColor=none;collapsible=0;dropTarget=0;points=[[0,0.5],[1,0.5]];portConstraint=eastwest;top=0;left=0;right=0;bottom=0;" parent="UXmly0hNfvdbmVREp-n4-268" vertex="1">
          <mxGeometry y="120" width="203" height="30" as="geometry" />
        </mxCell>
        <mxCell id="UXmly0hNfvdbmVREp-n4-279" value="text" style="shape=partialRectangle;connectable=0;fillColor=none;top=0;left=0;bottom=0;right=0;editable=1;overflow=hidden;whiteSpace=wrap;html=1;" parent="UXmly0hNfvdbmVREp-n4-278" vertex="1">
          <mxGeometry width="63" height="30" as="geometry">
            <mxRectangle width="63" height="30" as="alternateBounds" />
          </mxGeometry>
        </mxCell>
        <mxCell id="UXmly0hNfvdbmVREp-n4-280" value="reviewStatus" style="shape=partialRectangle;connectable=0;fillColor=none;top=0;left=0;bottom=0;right=0;align=left;spacingLeft=6;overflow=hidden;whiteSpace=wrap;html=1;" parent="UXmly0hNfvdbmVREp-n4-278" vertex="1">
          <mxGeometry x="63" width="140" height="30" as="geometry">
            <mxRectangle width="140" height="30" as="alternateBounds" />
          </mxGeometry>
        </mxCell>
        <mxCell id="UXmly0hNfvdbmVREp-n4-284" value="" style="edgeStyle=entityRelationEdgeStyle;fontSize=12;html=1;endArrow=ERmandOne;startArrow=ERmandOne;rounded=0;entryX=0;entryY=0.5;entryDx=0;entryDy=0;exitX=1;exitY=0.5;exitDx=0;exitDy=0;" parent="1" source="UXmly0hNfvdbmVREp-n4-56" target="UXmly0hNfvdbmVREp-n4-269" edge="1">
          <mxGeometry width="100" height="100" relative="1" as="geometry">
            <mxPoint x="70" y="400" as="sourcePoint" />
            <mxPoint x="170" y="300" as="targetPoint" />
          </mxGeometry>
        </mxCell>
        <mxCell id="UXmly0hNfvdbmVREp-n4-288" value="" style="rounded=0;whiteSpace=wrap;html=1;fillColor=none;dashed=1;" parent="1" vertex="1">
          <mxGeometry x="30" y="-70" width="320" height="170" as="geometry" />
        </mxCell>
        <mxCell id="UXmly0hNfvdbmVREp-n4-289" value="to discuss" style="text;html=1;align=center;verticalAlign=middle;resizable=0;points=[];autosize=1;strokeColor=none;fillColor=none;" parent="1" vertex="1">
          <mxGeometry x="270" width="80" height="30" as="geometry" />
        </mxCell>
        <mxCell id="UXmly0hNfvdbmVREp-n4-290" value="exclude for now" style="text;html=1;align=center;verticalAlign=middle;resizable=0;points=[];autosize=1;strokeColor=none;fillColor=none;" parent="1" vertex="1">
          <mxGeometry x="270" y="710" width="110" height="30" as="geometry" />
        </mxCell>
      </root>
    </mxGraphModel>
  </diagram>
  <diagram id="-2XMd0_jFtocuSsgo2nn" name="Page-2">
    <mxGraphModel dx="3587" dy="3027" grid="1" gridSize="10" guides="1" tooltips="1" connect="1" arrows="1" fold="1" page="1" pageScale="1" pageWidth="827" pageHeight="1169" math="0" shadow="0">
      <root>
        <mxCell id="0" />
        <mxCell id="1" parent="0" />
        <mxCell id="c6Hb2zQQ8QE9ZAwWw3pe-26" value="" style="rounded=0;whiteSpace=wrap;html=1;fillColor=none;dashed=1;" parent="1" vertex="1">
          <mxGeometry x="490" y="780" width="340" height="190" as="geometry" />
        </mxCell>
        <mxCell id="6FRRIMLwlLPpchPOm-Yn-29" value="Variants" style="whiteSpace=wrap;html=1;align=center;" parent="1" vertex="1">
          <mxGeometry x="590" y="360" width="100" height="40" as="geometry" />
        </mxCell>
        <mxCell id="6FRRIMLwlLPpchPOm-Yn-30" value="chromosome" style="ellipse;whiteSpace=wrap;html=1;align=center;" parent="1" vertex="1">
          <mxGeometry x="500" y="266" width="100" height="40" as="geometry" />
        </mxCell>
        <mxCell id="6FRRIMLwlLPpchPOm-Yn-31" value="chromosomePosition" style="ellipse;whiteSpace=wrap;html=1;align=center;" parent="1" vertex="1">
          <mxGeometry x="670" y="290" width="150" height="40" as="geometry" />
        </mxCell>
        <mxCell id="6FRRIMLwlLPpchPOm-Yn-32" value="type" style="ellipse;whiteSpace=wrap;html=1;align=center;" parent="1" vertex="1">
          <mxGeometry x="727" y="460" width="100" height="40" as="geometry" />
        </mxCell>
        <mxCell id="6FRRIMLwlLPpchPOm-Yn-33" value="ref" style="ellipse;whiteSpace=wrap;html=1;align=center;" parent="1" vertex="1">
          <mxGeometry x="660" y="500" width="100" height="40" as="geometry" />
        </mxCell>
        <mxCell id="6FRRIMLwlLPpchPOm-Yn-34" value="alt" style="ellipse;whiteSpace=wrap;html=1;align=center;" parent="1" vertex="1">
          <mxGeometry x="490" y="496" width="100" height="40" as="geometry" />
        </mxCell>
        <mxCell id="6FRRIMLwlLPpchPOm-Yn-35" value="classification" style="ellipse;whiteSpace=wrap;html=1;align=center;" parent="1" vertex="1">
          <mxGeometry x="450" y="440" width="100" height="40" as="geometry" />
        </mxCell>
        <mxCell id="6FRRIMLwlLPpchPOm-Yn-37" value="" style="endArrow=none;html=1;rounded=0;exitX=1;exitY=0;exitDx=0;exitDy=0;entryX=0;entryY=0.75;entryDx=0;entryDy=0;" parent="1" source="sL4z_3oHpMsQmr-aYs-U-5" target="6FRRIMLwlLPpchPOm-Yn-29" edge="1">
          <mxGeometry relative="1" as="geometry">
            <mxPoint x="560" y="380" as="sourcePoint" />
            <mxPoint x="720" y="380" as="targetPoint" />
          </mxGeometry>
        </mxCell>
        <mxCell id="6FRRIMLwlLPpchPOm-Yn-38" value="" style="endArrow=none;html=1;rounded=0;exitX=0.5;exitY=0;exitDx=0;exitDy=0;entryX=0.25;entryY=1;entryDx=0;entryDy=0;" parent="1" source="6FRRIMLwlLPpchPOm-Yn-34" target="6FRRIMLwlLPpchPOm-Yn-29" edge="1">
          <mxGeometry relative="1" as="geometry">
            <mxPoint x="590" y="440" as="sourcePoint" />
            <mxPoint x="650" y="410" as="targetPoint" />
          </mxGeometry>
        </mxCell>
        <mxCell id="6FRRIMLwlLPpchPOm-Yn-39" value="" style="endArrow=none;html=1;rounded=0;exitX=0.5;exitY=0;exitDx=0;exitDy=0;entryX=0.75;entryY=1;entryDx=0;entryDy=0;" parent="1" source="6FRRIMLwlLPpchPOm-Yn-33" target="6FRRIMLwlLPpchPOm-Yn-29" edge="1">
          <mxGeometry relative="1" as="geometry">
            <mxPoint x="650" y="490" as="sourcePoint" />
            <mxPoint x="650" y="410" as="targetPoint" />
          </mxGeometry>
        </mxCell>
        <mxCell id="6FRRIMLwlLPpchPOm-Yn-40" value="" style="endArrow=none;html=1;rounded=0;exitX=0;exitY=0;exitDx=0;exitDy=0;entryX=0.75;entryY=1;entryDx=0;entryDy=0;" parent="1" source="6FRRIMLwlLPpchPOm-Yn-32" target="6FRRIMLwlLPpchPOm-Yn-29" edge="1">
          <mxGeometry relative="1" as="geometry">
            <mxPoint x="730" y="440" as="sourcePoint" />
            <mxPoint x="650" y="410" as="targetPoint" />
          </mxGeometry>
        </mxCell>
        <mxCell id="6FRRIMLwlLPpchPOm-Yn-41" value="" style="endArrow=none;html=1;rounded=0;exitX=0;exitY=1;exitDx=0;exitDy=0;" parent="1" source="6FRRIMLwlLPpchPOm-Yn-31" edge="1">
          <mxGeometry relative="1" as="geometry">
            <mxPoint x="590" y="440" as="sourcePoint" />
            <mxPoint x="665" y="360" as="targetPoint" />
          </mxGeometry>
        </mxCell>
        <mxCell id="6FRRIMLwlLPpchPOm-Yn-44" value="" style="endArrow=none;html=1;rounded=0;entryX=1;entryY=1;entryDx=0;entryDy=0;" parent="1" source="6FRRIMLwlLPpchPOm-Yn-29" target="6FRRIMLwlLPpchPOm-Yn-30" edge="1">
          <mxGeometry relative="1" as="geometry">
            <mxPoint x="610" y="340" as="sourcePoint" />
            <mxPoint x="770" y="340" as="targetPoint" />
          </mxGeometry>
        </mxCell>
        <mxCell id="6FRRIMLwlLPpchPOm-Yn-47" value="variantId" style="ellipse;whiteSpace=wrap;html=1;align=center;fontStyle=4;" parent="1" vertex="1">
          <mxGeometry x="470" y="310" width="100" height="40" as="geometry" />
        </mxCell>
        <mxCell id="6FRRIMLwlLPpchPOm-Yn-49" value="" style="endArrow=none;html=1;rounded=0;exitX=0.25;exitY=0;exitDx=0;exitDy=0;entryX=1;entryY=1;entryDx=0;entryDy=0;" parent="1" source="6FRRIMLwlLPpchPOm-Yn-29" target="6FRRIMLwlLPpchPOm-Yn-47" edge="1">
          <mxGeometry relative="1" as="geometry">
            <mxPoint x="675" y="370" as="sourcePoint" />
            <mxPoint x="735" y="344" as="targetPoint" />
          </mxGeometry>
        </mxCell>
        <mxCell id="kIBsN0oIUsduCoJiP-RO-23" value="Publications" style="whiteSpace=wrap;html=1;align=center;" parent="1" vertex="1">
          <mxGeometry x="180" y="360" width="100" height="40" as="geometry" />
        </mxCell>
        <mxCell id="kIBsN0oIUsduCoJiP-RO-24" value="pmid" style="ellipse;whiteSpace=wrap;html=1;align=center;fontStyle=4;" parent="1" vertex="1">
          <mxGeometry x="140" y="300" width="100" height="40" as="geometry" />
        </mxCell>
        <mxCell id="kIBsN0oIUsduCoJiP-RO-25" value="title" style="ellipse;whiteSpace=wrap;html=1;align=center;" parent="1" vertex="1">
          <mxGeometry x="50" y="320" width="80" height="40" as="geometry" />
        </mxCell>
        <mxCell id="kIBsN0oIUsduCoJiP-RO-26" value="abstract" style="ellipse;whiteSpace=wrap;html=1;align=center;" parent="1" vertex="1">
          <mxGeometry x="30" y="370" width="100" height="40" as="geometry" />
        </mxCell>
        <mxCell id="kIBsN0oIUsduCoJiP-RO-27" value="title" style="ellipse;whiteSpace=wrap;html=1;align=center;" parent="1" vertex="1">
          <mxGeometry x="50" y="420" width="100" height="40" as="geometry" />
        </mxCell>
        <mxCell id="kIBsN0oIUsduCoJiP-RO-28" value="datePublished" style="ellipse;whiteSpace=wrap;html=1;align=center;" parent="1" vertex="1">
          <mxGeometry x="270" y="420" width="100" height="40" as="geometry" />
        </mxCell>
        <mxCell id="kIBsN0oIUsduCoJiP-RO-29" value="matchInSupMaterial" style="ellipse;whiteSpace=wrap;html=1;align=center;" parent="1" vertex="1">
          <mxGeometry x="140" y="450" width="140" height="40" as="geometry" />
        </mxCell>
        <mxCell id="kIBsN0oIUsduCoJiP-RO-31" value="" style="endArrow=none;html=1;rounded=0;exitX=0.5;exitY=1;exitDx=0;exitDy=0;entryX=0.5;entryY=0;entryDx=0;entryDy=0;" parent="1" source="kIBsN0oIUsduCoJiP-RO-23" target="kIBsN0oIUsduCoJiP-RO-29" edge="1">
          <mxGeometry relative="1" as="geometry">
            <mxPoint x="140" y="560" as="sourcePoint" />
            <mxPoint x="300" y="560" as="targetPoint" />
          </mxGeometry>
        </mxCell>
        <mxCell id="kIBsN0oIUsduCoJiP-RO-32" value="" style="endArrow=none;html=1;rounded=0;exitX=0.75;exitY=1;exitDx=0;exitDy=0;entryX=0;entryY=0;entryDx=0;entryDy=0;" parent="1" source="kIBsN0oIUsduCoJiP-RO-23" target="kIBsN0oIUsduCoJiP-RO-28" edge="1">
          <mxGeometry relative="1" as="geometry">
            <mxPoint x="240" y="410" as="sourcePoint" />
            <mxPoint x="240" y="460" as="targetPoint" />
          </mxGeometry>
        </mxCell>
        <mxCell id="kIBsN0oIUsduCoJiP-RO-33" value="" style="endArrow=none;html=1;rounded=0;exitX=0;exitY=1;exitDx=0;exitDy=0;entryX=1;entryY=0;entryDx=0;entryDy=0;" parent="1" source="kIBsN0oIUsduCoJiP-RO-23" target="kIBsN0oIUsduCoJiP-RO-27" edge="1">
          <mxGeometry relative="1" as="geometry">
            <mxPoint x="265" y="410" as="sourcePoint" />
            <mxPoint x="310" y="450" as="targetPoint" />
          </mxGeometry>
        </mxCell>
        <mxCell id="kIBsN0oIUsduCoJiP-RO-34" value="" style="endArrow=none;html=1;rounded=0;exitX=0;exitY=0.5;exitDx=0;exitDy=0;entryX=1;entryY=0.5;entryDx=0;entryDy=0;" parent="1" source="kIBsN0oIUsduCoJiP-RO-23" target="kIBsN0oIUsduCoJiP-RO-26" edge="1">
          <mxGeometry relative="1" as="geometry">
            <mxPoint x="290" y="390" as="sourcePoint" />
            <mxPoint x="310" y="400" as="targetPoint" />
          </mxGeometry>
        </mxCell>
        <mxCell id="kIBsN0oIUsduCoJiP-RO-35" value="" style="endArrow=none;html=1;rounded=0;exitX=0;exitY=0.25;exitDx=0;exitDy=0;entryX=1;entryY=1;entryDx=0;entryDy=0;" parent="1" source="kIBsN0oIUsduCoJiP-RO-23" target="kIBsN0oIUsduCoJiP-RO-25" edge="1">
          <mxGeometry relative="1" as="geometry">
            <mxPoint x="290" y="370" as="sourcePoint" />
            <mxPoint x="320" y="350" as="targetPoint" />
          </mxGeometry>
        </mxCell>
        <mxCell id="kIBsN0oIUsduCoJiP-RO-36" value="" style="endArrow=none;html=1;rounded=0;exitX=0.25;exitY=0;exitDx=0;exitDy=0;entryX=0.5;entryY=1;entryDx=0;entryDy=0;" parent="1" source="kIBsN0oIUsduCoJiP-RO-23" target="kIBsN0oIUsduCoJiP-RO-24" edge="1">
          <mxGeometry relative="1" as="geometry">
            <mxPoint x="265" y="370" as="sourcePoint" />
            <mxPoint x="310" y="330" as="targetPoint" />
          </mxGeometry>
        </mxCell>
        <mxCell id="h-JU6_REFka8tn1TpoTg-1" value="" style="endArrow=none;html=1;rounded=0;exitX=1;exitY=0.5;exitDx=0;exitDy=0;entryX=0;entryY=0.5;entryDx=0;entryDy=0;" parent="1" source="kIBsN0oIUsduCoJiP-RO-23" target="6FRRIMLwlLPpchPOm-Yn-29" edge="1">
          <mxGeometry relative="1" as="geometry">
            <mxPoint x="254" y="379.5" as="sourcePoint" />
            <mxPoint x="350" y="380" as="targetPoint" />
          </mxGeometry>
        </mxCell>
        <mxCell id="h-JU6_REFka8tn1TpoTg-2" value="M" style="resizable=0;html=1;whiteSpace=wrap;align=left;verticalAlign=bottom;" parent="h-JU6_REFka8tn1TpoTg-1" connectable="0" vertex="1">
          <mxGeometry x="-1" relative="1" as="geometry" />
        </mxCell>
        <mxCell id="h-JU6_REFka8tn1TpoTg-3" value="N" style="resizable=0;html=1;whiteSpace=wrap;align=right;verticalAlign=bottom;" parent="h-JU6_REFka8tn1TpoTg-1" connectable="0" vertex="1">
          <mxGeometry x="1" relative="1" as="geometry" />
        </mxCell>
        <mxCell id="l7I6ym6axRxT0pjrp5V8-1" value="GTF/GFF - https://www.ensembl.org/info/website/upload/gff.html" style="text;html=1;align=center;verticalAlign=middle;resizable=0;points=[];autosize=1;strokeColor=none;fillColor=none;" parent="1" vertex="1">
          <mxGeometry x="790" y="687" width="360" height="30" as="geometry" />
        </mxCell>
        <mxCell id="l7I6ym6axRxT0pjrp5V8-2" value="GenomeAnnotation" style="whiteSpace=wrap;html=1;align=center;" parent="1" vertex="1">
          <mxGeometry x="981" y="510" width="120" height="40" as="geometry" />
        </mxCell>
        <mxCell id="l7I6ym6axRxT0pjrp5V8-5" value="seqname" style="ellipse;whiteSpace=wrap;html=1;align=center;" parent="1" vertex="1">
          <mxGeometry x="1080" y="410" width="100" height="40" as="geometry" />
        </mxCell>
        <mxCell id="l7I6ym6axRxT0pjrp5V8-6" value="source" style="ellipse;whiteSpace=wrap;html=1;align=center;" parent="1" vertex="1">
          <mxGeometry x="1120" y="460" width="100" height="40" as="geometry" />
        </mxCell>
        <mxCell id="l7I6ym6axRxT0pjrp5V8-7" value="feature" style="ellipse;whiteSpace=wrap;html=1;align=center;" parent="1" vertex="1">
          <mxGeometry x="1130" y="510" width="100" height="40" as="geometry" />
        </mxCell>
        <mxCell id="l7I6ym6axRxT0pjrp5V8-8" value="start" style="ellipse;whiteSpace=wrap;html=1;align=center;" parent="1" vertex="1">
          <mxGeometry x="1000" y="450" width="100" height="40" as="geometry" />
        </mxCell>
        <mxCell id="l7I6ym6axRxT0pjrp5V8-9" value="end" style="ellipse;whiteSpace=wrap;html=1;align=center;" parent="1" vertex="1">
          <mxGeometry x="920" y="410" width="100" height="40" as="geometry" />
        </mxCell>
        <mxCell id="l7I6ym6axRxT0pjrp5V8-10" value="score" style="ellipse;whiteSpace=wrap;html=1;align=center;" parent="1" vertex="1">
          <mxGeometry x="1130" y="565" width="100" height="40" as="geometry" />
        </mxCell>
        <mxCell id="l7I6ym6axRxT0pjrp5V8-11" value="strand" style="ellipse;whiteSpace=wrap;html=1;align=center;" parent="1" vertex="1">
          <mxGeometry x="1090" y="610" width="100" height="40" as="geometry" />
        </mxCell>
        <mxCell id="l7I6ym6axRxT0pjrp5V8-12" value="frame" style="ellipse;whiteSpace=wrap;html=1;align=center;" parent="1" vertex="1">
          <mxGeometry x="880" y="550" width="100" height="40" as="geometry" />
        </mxCell>
        <mxCell id="l7I6ym6axRxT0pjrp5V8-13" value="attribute" style="ellipse;whiteSpace=wrap;html=1;align=center;" parent="1" vertex="1">
          <mxGeometry x="991" y="585" width="100" height="40" as="geometry" />
        </mxCell>
        <mxCell id="l7I6ym6axRxT0pjrp5V8-14" value="" style="endArrow=none;html=1;rounded=0;exitX=1;exitY=0;exitDx=0;exitDy=0;entryX=0;entryY=0.75;entryDx=0;entryDy=0;" parent="1" source="l7I6ym6axRxT0pjrp5V8-12" target="l7I6ym6axRxT0pjrp5V8-2" edge="1">
          <mxGeometry relative="1" as="geometry">
            <mxPoint x="910" y="580" as="sourcePoint" />
            <mxPoint x="1070" y="580" as="targetPoint" />
          </mxGeometry>
        </mxCell>
        <mxCell id="l7I6ym6axRxT0pjrp5V8-15" value="" style="endArrow=none;html=1;rounded=0;exitX=0.5;exitY=1;exitDx=0;exitDy=0;entryX=0.25;entryY=0;entryDx=0;entryDy=0;" parent="1" source="l7I6ym6axRxT0pjrp5V8-9" target="l7I6ym6axRxT0pjrp5V8-2" edge="1">
          <mxGeometry relative="1" as="geometry">
            <mxPoint x="975" y="566" as="sourcePoint" />
            <mxPoint x="1000" y="550" as="targetPoint" />
          </mxGeometry>
        </mxCell>
        <mxCell id="l7I6ym6axRxT0pjrp5V8-16" value="" style="endArrow=none;html=1;rounded=0;exitX=0.5;exitY=1;exitDx=0;exitDy=0;entryX=0.5;entryY=0;entryDx=0;entryDy=0;" parent="1" source="l7I6ym6axRxT0pjrp5V8-8" target="l7I6ym6axRxT0pjrp5V8-2" edge="1">
          <mxGeometry relative="1" as="geometry">
            <mxPoint x="970" y="530" as="sourcePoint" />
            <mxPoint x="1000" y="540" as="targetPoint" />
          </mxGeometry>
        </mxCell>
        <mxCell id="l7I6ym6axRxT0pjrp5V8-17" value="" style="endArrow=none;html=1;rounded=0;exitX=0.5;exitY=1;exitDx=0;exitDy=0;entryX=0.75;entryY=0;entryDx=0;entryDy=0;" parent="1" source="l7I6ym6axRxT0pjrp5V8-5" target="l7I6ym6axRxT0pjrp5V8-2" edge="1">
          <mxGeometry relative="1" as="geometry">
            <mxPoint x="925" y="494" as="sourcePoint" />
            <mxPoint x="1000" y="530" as="targetPoint" />
          </mxGeometry>
        </mxCell>
        <mxCell id="l7I6ym6axRxT0pjrp5V8-18" value="" style="endArrow=none;html=1;rounded=0;exitX=0;exitY=1;exitDx=0;exitDy=0;entryX=1;entryY=0.25;entryDx=0;entryDy=0;" parent="1" source="l7I6ym6axRxT0pjrp5V8-6" target="l7I6ym6axRxT0pjrp5V8-2" edge="1">
          <mxGeometry relative="1" as="geometry">
            <mxPoint x="1000" y="500" as="sourcePoint" />
            <mxPoint x="1025" y="520" as="targetPoint" />
          </mxGeometry>
        </mxCell>
        <mxCell id="l7I6ym6axRxT0pjrp5V8-19" value="" style="endArrow=none;html=1;rounded=0;exitX=0;exitY=0.5;exitDx=0;exitDy=0;entryX=1;entryY=0.5;entryDx=0;entryDy=0;" parent="1" source="l7I6ym6axRxT0pjrp5V8-7" target="l7I6ym6axRxT0pjrp5V8-2" edge="1">
          <mxGeometry relative="1" as="geometry">
            <mxPoint x="1060" y="450" as="sourcePoint" />
            <mxPoint x="1050" y="520" as="targetPoint" />
          </mxGeometry>
        </mxCell>
        <mxCell id="l7I6ym6axRxT0pjrp5V8-20" value="" style="endArrow=none;html=1;rounded=0;exitX=0;exitY=0;exitDx=0;exitDy=0;entryX=1;entryY=0.75;entryDx=0;entryDy=0;" parent="1" source="l7I6ym6axRxT0pjrp5V8-10" target="l7I6ym6axRxT0pjrp5V8-2" edge="1">
          <mxGeometry relative="1" as="geometry">
            <mxPoint x="1085" y="494" as="sourcePoint" />
            <mxPoint x="1090" y="510" as="targetPoint" />
          </mxGeometry>
        </mxCell>
        <mxCell id="l7I6ym6axRxT0pjrp5V8-21" value="" style="endArrow=none;html=1;rounded=0;exitX=0.5;exitY=0;exitDx=0;exitDy=0;entryX=0.75;entryY=1;entryDx=0;entryDy=0;" parent="1" source="l7I6ym6axRxT0pjrp5V8-11" target="l7I6ym6axRxT0pjrp5V8-2" edge="1">
          <mxGeometry relative="1" as="geometry">
            <mxPoint x="1205" y="494" as="sourcePoint" />
            <mxPoint x="1100" y="520" as="targetPoint" />
          </mxGeometry>
        </mxCell>
        <mxCell id="l7I6ym6axRxT0pjrp5V8-22" value="" style="endArrow=none;html=1;rounded=0;entryX=0.5;entryY=1;entryDx=0;entryDy=0;" parent="1" source="l7I6ym6axRxT0pjrp5V8-13" target="l7I6ym6axRxT0pjrp5V8-2" edge="1">
          <mxGeometry relative="1" as="geometry">
            <mxPoint x="1140" y="530" as="sourcePoint" />
            <mxPoint x="1100" y="540" as="targetPoint" />
          </mxGeometry>
        </mxCell>
        <mxCell id="l7I6ym6axRxT0pjrp5V8-23" value="ExternalReferences" style="whiteSpace=wrap;html=1;align=center;" parent="1" vertex="1">
          <mxGeometry x="1005" y="240" width="130" height="40" as="geometry" />
        </mxCell>
        <mxCell id="buxLtOS9JsyJkByutGfd-1" value="variantId" style="ellipse;whiteSpace=wrap;html=1;align=center;fontStyle=4;" parent="1" vertex="1">
          <mxGeometry x="940" y="190" width="100" height="40" as="geometry" />
        </mxCell>
        <mxCell id="buxLtOS9JsyJkByutGfd-2" value="&lt;span style=&quot;background-color: rgb(255, 255, 255);&quot;&gt;geneId&lt;/span&gt;" style="ellipse;whiteSpace=wrap;html=1;align=center;fontStyle=4;" parent="1" vertex="1">
          <mxGeometry x="1020" y="150" width="100" height="40" as="geometry" />
        </mxCell>
        <mxCell id="buxLtOS9JsyJkByutGfd-4" value="dbType" style="ellipse;whiteSpace=wrap;html=1;align=center;" parent="1" vertex="1">
          <mxGeometry x="1100" y="300" width="100" height="40" as="geometry" />
        </mxCell>
        <mxCell id="kQ2PzZ3rxacZZ_I5fAMP-1" value="dbId" style="ellipse;whiteSpace=wrap;html=1;align=center;" parent="1" vertex="1">
          <mxGeometry x="1005" y="320" width="100" height="40" as="geometry" />
        </mxCell>
        <mxCell id="kQ2PzZ3rxacZZ_I5fAMP-2" value="errorMsg" style="ellipse;whiteSpace=wrap;html=1;align=center;" parent="1" vertex="1">
          <mxGeometry x="910" y="300" width="100" height="40" as="geometry" />
        </mxCell>
        <mxCell id="kQ2PzZ3rxacZZ_I5fAMP-3" value="" style="endArrow=none;html=1;rounded=0;exitX=1;exitY=1;exitDx=0;exitDy=0;" parent="1" source="buxLtOS9JsyJkByutGfd-1" edge="1">
          <mxGeometry relative="1" as="geometry">
            <mxPoint x="985" y="340" as="sourcePoint" />
            <mxPoint x="1035" y="240" as="targetPoint" />
          </mxGeometry>
        </mxCell>
        <mxCell id="kQ2PzZ3rxacZZ_I5fAMP-4" value="" style="endArrow=none;html=1;rounded=0;exitX=0.5;exitY=1;exitDx=0;exitDy=0;entryX=0.5;entryY=0;entryDx=0;entryDy=0;" parent="1" source="buxLtOS9JsyJkByutGfd-2" target="l7I6ym6axRxT0pjrp5V8-23" edge="1">
          <mxGeometry relative="1" as="geometry">
            <mxPoint x="1005" y="400" as="sourcePoint" />
            <mxPoint x="1165" y="400" as="targetPoint" />
          </mxGeometry>
        </mxCell>
        <mxCell id="kQ2PzZ3rxacZZ_I5fAMP-5" value="" style="endArrow=none;html=1;rounded=0;exitX=0;exitY=1;exitDx=0;exitDy=0;entryX=0.75;entryY=0;entryDx=0;entryDy=0;" parent="1" source="Dt5rozKJsrJHjBAGdHYT-2" target="Dt5rozKJsrJHjBAGdHYT-1" edge="1">
          <mxGeometry relative="1" as="geometry">
            <mxPoint x="1190" y="200" as="sourcePoint" />
            <mxPoint x="1165" y="250" as="targetPoint" />
          </mxGeometry>
        </mxCell>
        <mxCell id="kQ2PzZ3rxacZZ_I5fAMP-6" value="" style="endArrow=none;html=1;rounded=0;exitX=0.5;exitY=0;exitDx=0;exitDy=0;entryX=0.5;entryY=1;entryDx=0;entryDy=0;" parent="1" source="kQ2PzZ3rxacZZ_I5fAMP-1" target="l7I6ym6axRxT0pjrp5V8-23" edge="1">
          <mxGeometry relative="1" as="geometry">
            <mxPoint x="1140" y="234" as="sourcePoint" />
            <mxPoint x="1113" y="250" as="targetPoint" />
          </mxGeometry>
        </mxCell>
        <mxCell id="kQ2PzZ3rxacZZ_I5fAMP-7" value="" style="endArrow=none;html=1;rounded=0;exitX=1;exitY=0;exitDx=0;exitDy=0;entryX=0.25;entryY=1;entryDx=0;entryDy=0;" parent="1" source="kQ2PzZ3rxacZZ_I5fAMP-2" target="l7I6ym6axRxT0pjrp5V8-23" edge="1">
          <mxGeometry relative="1" as="geometry">
            <mxPoint x="1165" y="270" as="sourcePoint" />
            <mxPoint x="1145" y="270" as="targetPoint" />
          </mxGeometry>
        </mxCell>
        <mxCell id="sL4z_3oHpMsQmr-aYs-U-1" value="geneId" style="ellipse;whiteSpace=wrap;html=1;align=center;fontStyle=4;" parent="1" vertex="1">
          <mxGeometry x="880" y="600" width="100" height="40" as="geometry" />
        </mxCell>
        <mxCell id="sL4z_3oHpMsQmr-aYs-U-2" value="" style="endArrow=none;html=1;rounded=0;exitX=1;exitY=0;exitDx=0;exitDy=0;entryX=0.25;entryY=1;entryDx=0;entryDy=0;" parent="1" source="sL4z_3oHpMsQmr-aYs-U-1" target="l7I6ym6axRxT0pjrp5V8-2" edge="1">
          <mxGeometry relative="1" as="geometry">
            <mxPoint x="975" y="566" as="sourcePoint" />
            <mxPoint x="1000" y="550" as="targetPoint" />
          </mxGeometry>
        </mxCell>
        <mxCell id="sL4z_3oHpMsQmr-aYs-U-3" value="store only where &#39;feature&#39; === &#39;GENE&#39; from gff and check if a variant falls between the start and end to extract 1+ genes" style="text;html=1;align=center;verticalAlign=middle;resizable=0;points=[];autosize=1;strokeColor=none;fillColor=none;" parent="1" vertex="1">
          <mxGeometry x="780" y="670" width="660" height="30" as="geometry" />
        </mxCell>
        <mxCell id="sL4z_3oHpMsQmr-aYs-U-5" value="geneId" style="ellipse;whiteSpace=wrap;html=1;align=center;" parent="1" vertex="1">
          <mxGeometry x="470" y="390" width="100" height="40" as="geometry" />
        </mxCell>
        <mxCell id="HKdlCm8XXvfuQje4Nxfc-6" value="" style="endArrow=none;html=1;rounded=0;dashed=1;dashPattern=1 2;exitX=1;exitY=0.25;exitDx=0;exitDy=0;entryX=0;entryY=0.5;entryDx=0;entryDy=0;" parent="1" source="6FRRIMLwlLPpchPOm-Yn-29" target="l7I6ym6axRxT0pjrp5V8-23" edge="1">
          <mxGeometry relative="1" as="geometry">
            <mxPoint x="800" y="370" as="sourcePoint" />
            <mxPoint x="960" y="370" as="targetPoint" />
          </mxGeometry>
        </mxCell>
        <mxCell id="HKdlCm8XXvfuQje4Nxfc-7" value="N" style="resizable=0;html=1;whiteSpace=wrap;align=right;verticalAlign=bottom;" parent="HKdlCm8XXvfuQje4Nxfc-6" connectable="0" vertex="1">
          <mxGeometry x="1" relative="1" as="geometry" />
        </mxCell>
        <mxCell id="HKdlCm8XXvfuQje4Nxfc-8" value="0" style="text;html=1;align=center;verticalAlign=middle;resizable=0;points=[];autosize=1;strokeColor=none;fillColor=none;" parent="1" vertex="1">
          <mxGeometry x="684" y="343" width="30" height="30" as="geometry" />
        </mxCell>
        <mxCell id="HKdlCm8XXvfuQje4Nxfc-11" value="" style="endArrow=none;html=1;rounded=0;exitX=1;exitY=0.75;exitDx=0;exitDy=0;entryX=0;entryY=0.5;entryDx=0;entryDy=0;" parent="1" source="6FRRIMLwlLPpchPOm-Yn-29" target="l7I6ym6axRxT0pjrp5V8-2" edge="1">
          <mxGeometry relative="1" as="geometry">
            <mxPoint x="810" y="380" as="sourcePoint" />
            <mxPoint x="1070" y="360" as="targetPoint" />
          </mxGeometry>
        </mxCell>
        <mxCell id="HKdlCm8XXvfuQje4Nxfc-12" value="N" style="resizable=0;html=1;whiteSpace=wrap;align=right;verticalAlign=bottom;" parent="HKdlCm8XXvfuQje4Nxfc-11" connectable="0" vertex="1">
          <mxGeometry x="1" relative="1" as="geometry" />
        </mxCell>
        <mxCell id="HKdlCm8XXvfuQje4Nxfc-13" value="" style="endArrow=none;html=1;rounded=0;exitX=1;exitY=0;exitDx=0;exitDy=0;entryX=0.25;entryY=1;entryDx=0;entryDy=0;" parent="1" source="6FRRIMLwlLPpchPOm-Yn-35" target="6FRRIMLwlLPpchPOm-Yn-29" edge="1">
          <mxGeometry relative="1" as="geometry">
            <mxPoint x="580" y="420" as="sourcePoint" />
            <mxPoint x="625" y="410" as="targetPoint" />
          </mxGeometry>
        </mxCell>
        <mxCell id="HKdlCm8XXvfuQje4Nxfc-14" value="1" style="text;html=1;align=center;verticalAlign=middle;resizable=0;points=[];autosize=1;strokeColor=none;fillColor=none;" parent="1" vertex="1">
          <mxGeometry x="684" y="372" width="30" height="30" as="geometry" />
        </mxCell>
        <mxCell id="Dt5rozKJsrJHjBAGdHYT-1" value="DbSnp" style="whiteSpace=wrap;html=1;align=center;" parent="1" vertex="1">
          <mxGeometry x="1415" y="130" width="100" height="40" as="geometry" />
        </mxCell>
        <mxCell id="Dt5rozKJsrJHjBAGdHYT-2" value="&lt;span style=&quot;background-color: rgb(255, 255, 255);&quot;&gt;dbSnpId&lt;/span&gt;" style="ellipse;whiteSpace=wrap;html=1;align=center;fontStyle=4;" parent="1" vertex="1">
          <mxGeometry x="1495" y="70" width="100" height="40" as="geometry" />
        </mxCell>
        <mxCell id="Dt5rozKJsrJHjBAGdHYT-5" value="" style="endArrow=none;html=1;rounded=0;exitX=0;exitY=0;exitDx=0;exitDy=0;entryX=0.75;entryY=1;entryDx=0;entryDy=0;" parent="1" source="buxLtOS9JsyJkByutGfd-4" target="l7I6ym6axRxT0pjrp5V8-23" edge="1">
          <mxGeometry relative="1" as="geometry">
            <mxPoint x="1065" y="330" as="sourcePoint" />
            <mxPoint x="1080" y="290" as="targetPoint" />
          </mxGeometry>
        </mxCell>
        <mxCell id="Dt5rozKJsrJHjBAGdHYT-6" value="" style="endArrow=none;html=1;rounded=0;dashed=1;dashPattern=1 2;entryX=0;entryY=0.5;entryDx=0;entryDy=0;exitX=1;exitY=0.25;exitDx=0;exitDy=0;" parent="1" source="l7I6ym6axRxT0pjrp5V8-23" target="Dt5rozKJsrJHjBAGdHYT-1" edge="1">
          <mxGeometry relative="1" as="geometry">
            <mxPoint x="950" y="420" as="sourcePoint" />
            <mxPoint x="1110" y="420" as="targetPoint" />
          </mxGeometry>
        </mxCell>
        <mxCell id="Dt5rozKJsrJHjBAGdHYT-7" value="1" style="resizable=0;html=1;whiteSpace=wrap;align=right;verticalAlign=bottom;" parent="Dt5rozKJsrJHjBAGdHYT-6" connectable="0" vertex="1">
          <mxGeometry x="1" relative="1" as="geometry" />
        </mxCell>
        <mxCell id="Dt5rozKJsrJHjBAGdHYT-8" value="0" style="text;html=1;align=center;verticalAlign=middle;resizable=0;points=[];autosize=1;strokeColor=none;fillColor=none;" parent="1" vertex="1">
          <mxGeometry x="1129" y="219" width="30" height="30" as="geometry" />
        </mxCell>
        <mxCell id="O4a-i7bcokG0-uaq7Jov-1" value="ClinVar" style="whiteSpace=wrap;html=1;align=center;" parent="1" vertex="1">
          <mxGeometry x="1415" y="306" width="100" height="40" as="geometry" />
        </mxCell>
        <mxCell id="pdltLptxjxTNnhw0_mqO-1" value="&lt;span style=&quot;background-color: rgb(255, 255, 255);&quot;&gt;clinVarId&lt;/span&gt;" style="ellipse;whiteSpace=wrap;html=1;align=center;fontStyle=4;" parent="1" vertex="1">
          <mxGeometry x="1445" y="250" width="100" height="40" as="geometry" />
        </mxCell>
        <mxCell id="pdltLptxjxTNnhw0_mqO-2" value="" style="endArrow=none;html=1;rounded=0;exitX=0;exitY=0.5;exitDx=0;exitDy=0;entryX=1;entryY=0.5;entryDx=0;entryDy=0;" parent="1" source="BR0WVOYScf3qR5gH76Pp-1" target="O4a-i7bcokG0-uaq7Jov-1" edge="1">
          <mxGeometry relative="1" as="geometry">
            <mxPoint x="1519.28" y="170" as="sourcePoint" />
            <mxPoint x="1500.28" y="196" as="targetPoint" />
          </mxGeometry>
        </mxCell>
        <mxCell id="BR0WVOYScf3qR5gH76Pp-1" value="classification" style="ellipse;whiteSpace=wrap;html=1;align=center;" parent="1" vertex="1">
          <mxGeometry x="1534.28" y="306" width="100" height="40" as="geometry" />
        </mxCell>
        <mxCell id="HsN2TMgFaOKcrZ_lgFLR-1" value="" style="endArrow=none;html=1;rounded=0;exitX=0.5;exitY=1;exitDx=0;exitDy=0;entryX=0.75;entryY=0;entryDx=0;entryDy=0;" parent="1" source="pdltLptxjxTNnhw0_mqO-1" target="O4a-i7bcokG0-uaq7Jov-1" edge="1">
          <mxGeometry relative="1" as="geometry">
            <mxPoint x="1555.28" y="326" as="sourcePoint" />
            <mxPoint x="1525.28" y="336" as="targetPoint" />
          </mxGeometry>
        </mxCell>
        <mxCell id="IUdLhrlTFI0xp8F0PMuj-1" value="" style="endArrow=none;html=1;rounded=0;dashed=1;dashPattern=1 2;entryX=0;entryY=0.5;entryDx=0;entryDy=0;exitX=1;exitY=0.75;exitDx=0;exitDy=0;" parent="1" source="l7I6ym6axRxT0pjrp5V8-23" target="O4a-i7bcokG0-uaq7Jov-1" edge="1">
          <mxGeometry relative="1" as="geometry">
            <mxPoint x="1145" y="260" as="sourcePoint" />
            <mxPoint x="1261" y="180" as="targetPoint" />
          </mxGeometry>
        </mxCell>
        <mxCell id="IUdLhrlTFI0xp8F0PMuj-2" value="1" style="resizable=0;html=1;whiteSpace=wrap;align=right;verticalAlign=bottom;" parent="IUdLhrlTFI0xp8F0PMuj-1" connectable="0" vertex="1">
          <mxGeometry x="1" relative="1" as="geometry" />
        </mxCell>
        <mxCell id="IUdLhrlTFI0xp8F0PMuj-3" value="0" style="text;html=1;align=center;verticalAlign=middle;resizable=0;points=[];autosize=1;strokeColor=none;fillColor=none;" parent="1" vertex="1">
          <mxGeometry x="1129" y="249" width="30" height="30" as="geometry" />
        </mxCell>
        <mxCell id="aluEOykKhTUH877BEMGu-1" value="canonicalSpdi" style="ellipse;whiteSpace=wrap;html=1;align=center;" parent="1" vertex="1">
          <mxGeometry x="1554.28" y="255" width="100" height="40" as="geometry" />
        </mxCell>
        <mxCell id="aluEOykKhTUH877BEMGu-2" value="" style="endArrow=none;html=1;rounded=0;exitX=0;exitY=1;exitDx=0;exitDy=0;entryX=1;entryY=0.25;entryDx=0;entryDy=0;" parent="1" source="aluEOykKhTUH877BEMGu-1" target="O4a-i7bcokG0-uaq7Jov-1" edge="1">
          <mxGeometry relative="1" as="geometry">
            <mxPoint x="1505.28" y="300" as="sourcePoint" />
            <mxPoint x="1500.28" y="316" as="targetPoint" />
          </mxGeometry>
        </mxCell>
        <mxCell id="VIeY0WUgYi7qpmT0tUt2-1" value="lastEvaluated" style="ellipse;whiteSpace=wrap;html=1;align=center;" parent="1" vertex="1">
          <mxGeometry x="1500" y="365" width="100" height="40" as="geometry" />
        </mxCell>
        <mxCell id="VIeY0WUgYi7qpmT0tUt2-2" value="reviewStatus" style="ellipse;whiteSpace=wrap;html=1;align=center;" parent="1" vertex="1">
          <mxGeometry x="1380" y="380" width="100" height="40" as="geometry" />
        </mxCell>
        <mxCell id="VIeY0WUgYi7qpmT0tUt2-3" value="" style="endArrow=none;html=1;rounded=0;exitX=0.5;exitY=0;exitDx=0;exitDy=0;entryX=0.5;entryY=1;entryDx=0;entryDy=0;" parent="1" source="VIeY0WUgYi7qpmT0tUt2-2" target="O4a-i7bcokG0-uaq7Jov-1" edge="1">
          <mxGeometry relative="1" as="geometry">
            <mxPoint x="1435" y="346" as="sourcePoint" />
            <mxPoint x="1430" y="496" as="targetPoint" />
          </mxGeometry>
        </mxCell>
        <mxCell id="VIeY0WUgYi7qpmT0tUt2-4" value="" style="endArrow=none;html=1;rounded=0;exitX=0.5;exitY=0;exitDx=0;exitDy=0;entryX=1;entryY=0.75;entryDx=0;entryDy=0;" parent="1" source="VIeY0WUgYi7qpmT0tUt2-1" target="O4a-i7bcokG0-uaq7Jov-1" edge="1">
          <mxGeometry relative="1" as="geometry">
            <mxPoint x="1496" y="526" as="sourcePoint" />
            <mxPoint x="1475" y="506" as="targetPoint" />
          </mxGeometry>
        </mxCell>
        <mxCell id="hzw0Gz0SwvrZO92qmEEH-1" value="SampleVariant" style="whiteSpace=wrap;html=1;align=center;" parent="1" vertex="1">
          <mxGeometry x="590" y="627" width="100" height="40" as="geometry" />
        </mxCell>
        <mxCell id="hzw0Gz0SwvrZO92qmEEH-2" value="variantId" style="ellipse;whiteSpace=wrap;html=1;align=center;fontStyle=4;" parent="1" vertex="1">
          <mxGeometry x="510" y="577" width="100" height="40" as="geometry" />
        </mxCell>
        <mxCell id="hzw0Gz0SwvrZO92qmEEH-3" value="sampleId" style="ellipse;whiteSpace=wrap;html=1;align=center;fontStyle=4;" parent="1" vertex="1">
          <mxGeometry x="470" y="627" width="100" height="40" as="geometry" />
        </mxCell>
        <mxCell id="hzw0Gz0SwvrZO92qmEEH-5" value="genotype" style="ellipse;whiteSpace=wrap;html=1;align=center;" parent="1" vertex="1">
          <mxGeometry x="500" y="677" width="100" height="40" as="geometry" />
        </mxCell>
        <mxCell id="hzw0Gz0SwvrZO92qmEEH-7" value="" style="endArrow=none;html=1;rounded=0;exitX=0;exitY=0.5;exitDx=0;exitDy=0;entryX=1;entryY=0.5;entryDx=0;entryDy=0;" parent="1" source="hzw0Gz0SwvrZO92qmEEH-1" target="hzw0Gz0SwvrZO92qmEEH-3" edge="1">
          <mxGeometry relative="1" as="geometry">
            <mxPoint x="525" y="347" as="sourcePoint" />
            <mxPoint x="555" y="373" as="targetPoint" />
          </mxGeometry>
        </mxCell>
        <mxCell id="hzw0Gz0SwvrZO92qmEEH-8" value="" style="endArrow=none;html=1;rounded=0;exitX=0.25;exitY=0;exitDx=0;exitDy=0;entryX=1;entryY=1;entryDx=0;entryDy=0;" parent="1" source="hzw0Gz0SwvrZO92qmEEH-1" target="hzw0Gz0SwvrZO92qmEEH-2" edge="1">
          <mxGeometry relative="1" as="geometry">
            <mxPoint x="600" y="657" as="sourcePoint" />
            <mxPoint x="580" y="657" as="targetPoint" />
          </mxGeometry>
        </mxCell>
        <mxCell id="hzw0Gz0SwvrZO92qmEEH-10" value="" style="endArrow=none;html=1;rounded=0;exitX=0.25;exitY=1;exitDx=0;exitDy=0;entryX=1;entryY=0;entryDx=0;entryDy=0;" parent="1" source="hzw0Gz0SwvrZO92qmEEH-1" target="hzw0Gz0SwvrZO92qmEEH-5" edge="1">
          <mxGeometry relative="1" as="geometry">
            <mxPoint x="600" y="657" as="sourcePoint" />
            <mxPoint x="580" y="657" as="targetPoint" />
          </mxGeometry>
        </mxCell>
        <mxCell id="c6Hb2zQQ8QE9ZAwWw3pe-11" value="Sample" style="whiteSpace=wrap;html=1;align=center;" parent="1" vertex="1">
          <mxGeometry x="590" y="810" width="100" height="40" as="geometry" />
        </mxCell>
        <mxCell id="c6Hb2zQQ8QE9ZAwWw3pe-12" value="sampleId" style="ellipse;whiteSpace=wrap;html=1;align=center;fontStyle=4;" parent="1" vertex="1">
          <mxGeometry x="500" y="870" width="100" height="40" as="geometry" />
        </mxCell>
        <mxCell id="c6Hb2zQQ8QE9ZAwWw3pe-13" value="dateCollected" style="ellipse;whiteSpace=wrap;html=1;align=center;" parent="1" vertex="1">
          <mxGeometry x="680" y="870" width="100" height="40" as="geometry" />
        </mxCell>
        <mxCell id="c6Hb2zQQ8QE9ZAwWw3pe-14" value="description" style="ellipse;whiteSpace=wrap;html=1;align=center;" parent="1" vertex="1">
          <mxGeometry x="590" y="910" width="100" height="40" as="geometry" />
        </mxCell>
        <mxCell id="c6Hb2zQQ8QE9ZAwWw3pe-15" value="" style="endArrow=none;html=1;rounded=0;exitX=0.25;exitY=1;exitDx=0;exitDy=0;entryX=1;entryY=0;entryDx=0;entryDy=0;" parent="1" source="c6Hb2zQQ8QE9ZAwWw3pe-11" target="c6Hb2zQQ8QE9ZAwWw3pe-12" edge="1">
          <mxGeometry relative="1" as="geometry">
            <mxPoint x="285" y="810" as="sourcePoint" />
            <mxPoint x="255" y="826" as="targetPoint" />
          </mxGeometry>
        </mxCell>
        <mxCell id="c6Hb2zQQ8QE9ZAwWw3pe-16" value="" style="endArrow=none;html=1;rounded=0;exitX=0.5;exitY=1;exitDx=0;exitDy=0;entryX=0.5;entryY=0;entryDx=0;entryDy=0;" parent="1" source="c6Hb2zQQ8QE9ZAwWw3pe-11" target="c6Hb2zQQ8QE9ZAwWw3pe-14" edge="1">
          <mxGeometry relative="1" as="geometry">
            <mxPoint x="625" y="860" as="sourcePoint" />
            <mxPoint x="595" y="886" as="targetPoint" />
          </mxGeometry>
        </mxCell>
        <mxCell id="c6Hb2zQQ8QE9ZAwWw3pe-17" value="" style="endArrow=none;html=1;rounded=0;entryX=0;entryY=0;entryDx=0;entryDy=0;" parent="1" target="c6Hb2zQQ8QE9ZAwWw3pe-13" edge="1">
          <mxGeometry relative="1" as="geometry">
            <mxPoint x="670" y="850" as="sourcePoint" />
            <mxPoint x="650" y="920" as="targetPoint" />
          </mxGeometry>
        </mxCell>
        <mxCell id="c6Hb2zQQ8QE9ZAwWw3pe-18" value="" style="endArrow=none;html=1;rounded=0;exitX=0.5;exitY=1;exitDx=0;exitDy=0;entryX=0.5;entryY=0;entryDx=0;entryDy=0;" parent="1" source="6FRRIMLwlLPpchPOm-Yn-29" target="hzw0Gz0SwvrZO92qmEEH-1" edge="1">
          <mxGeometry relative="1" as="geometry">
            <mxPoint x="700" y="400" as="sourcePoint" />
            <mxPoint x="1000" y="540" as="targetPoint" />
          </mxGeometry>
        </mxCell>
        <mxCell id="c6Hb2zQQ8QE9ZAwWw3pe-19" value="N" style="resizable=0;html=1;whiteSpace=wrap;align=right;verticalAlign=bottom;" parent="c6Hb2zQQ8QE9ZAwWw3pe-18" connectable="0" vertex="1">
          <mxGeometry x="1" relative="1" as="geometry">
            <mxPoint x="-5" as="offset" />
          </mxGeometry>
        </mxCell>
        <mxCell id="c6Hb2zQQ8QE9ZAwWw3pe-20" value="1" style="text;html=1;align=center;verticalAlign=middle;resizable=0;points=[];autosize=1;strokeColor=none;fillColor=none;" parent="1" vertex="1">
          <mxGeometry x="617" y="395" width="30" height="30" as="geometry" />
        </mxCell>
        <mxCell id="c6Hb2zQQ8QE9ZAwWw3pe-23" value="" style="endArrow=none;html=1;rounded=0;entryX=0.5;entryY=1;entryDx=0;entryDy=0;exitX=0.5;exitY=0;exitDx=0;exitDy=0;" parent="1" source="c6Hb2zQQ8QE9ZAwWw3pe-11" target="hzw0Gz0SwvrZO92qmEEH-1" edge="1">
          <mxGeometry relative="1" as="geometry">
            <mxPoint x="650" y="780" as="sourcePoint" />
            <mxPoint x="639.17" y="687" as="targetPoint" />
          </mxGeometry>
        </mxCell>
        <mxCell id="c6Hb2zQQ8QE9ZAwWw3pe-24" value="N" style="resizable=0;html=1;whiteSpace=wrap;align=right;verticalAlign=bottom;" parent="c6Hb2zQQ8QE9ZAwWw3pe-23" connectable="0" vertex="1">
          <mxGeometry x="1" relative="1" as="geometry">
            <mxPoint x="-5" y="20" as="offset" />
          </mxGeometry>
        </mxCell>
        <mxCell id="c6Hb2zQQ8QE9ZAwWw3pe-25" value="1" style="text;html=1;align=center;verticalAlign=middle;resizable=0;points=[];autosize=1;strokeColor=none;fillColor=none;" parent="1" vertex="1">
          <mxGeometry x="615" y="787" width="30" height="30" as="geometry" />
        </mxCell>
        <mxCell id="0kKYyRj1Gr-UnhSWqb_t-1" value="ClassificationOverrides" style="whiteSpace=wrap;html=1;align=center;" parent="1" vertex="1">
          <mxGeometry x="570" y="70" width="140" height="40" as="geometry" />
        </mxCell>
        <mxCell id="0kKYyRj1Gr-UnhSWqb_t-3" value="scientificMemberId" style="ellipse;whiteSpace=wrap;html=1;align=center;fontStyle=4;" parent="1" vertex="1">
          <mxGeometry x="370" y="120" width="140" height="40" as="geometry" />
        </mxCell>
        <mxCell id="0kKYyRj1Gr-UnhSWqb_t-4" value="variantId" style="ellipse;whiteSpace=wrap;html=1;align=center;fontStyle=4;" parent="1" vertex="1">
          <mxGeometry x="420" y="70" width="100" height="40" as="geometry" />
        </mxCell>
        <mxCell id="0kKYyRj1Gr-UnhSWqb_t-5" value="classification" style="ellipse;whiteSpace=wrap;html=1;align=center;" parent="1" vertex="1">
          <mxGeometry x="760" y="70" width="100" height="40" as="geometry" />
        </mxCell>
        <mxCell id="0kKYyRj1Gr-UnhSWqb_t-7" value="" style="endArrow=none;html=1;rounded=0;exitX=0;exitY=0.75;exitDx=0;exitDy=0;entryX=1;entryY=0;entryDx=0;entryDy=0;" parent="1" source="0kKYyRj1Gr-UnhSWqb_t-1" target="0kKYyRj1Gr-UnhSWqb_t-3" edge="1">
          <mxGeometry relative="1" as="geometry">
            <mxPoint x="692" y="374" as="sourcePoint" />
            <mxPoint x="675" y="410" as="targetPoint" />
          </mxGeometry>
        </mxCell>
        <mxCell id="0kKYyRj1Gr-UnhSWqb_t-8" value="" style="endArrow=none;html=1;rounded=0;exitX=0;exitY=0.5;exitDx=0;exitDy=0;entryX=1;entryY=0.5;entryDx=0;entryDy=0;" parent="1" source="0kKYyRj1Gr-UnhSWqb_t-1" target="0kKYyRj1Gr-UnhSWqb_t-4" edge="1">
          <mxGeometry relative="1" as="geometry">
            <mxPoint x="615" y="120" as="sourcePoint" />
            <mxPoint x="565" y="146" as="targetPoint" />
          </mxGeometry>
        </mxCell>
        <mxCell id="0kKYyRj1Gr-UnhSWqb_t-9" value="" style="endArrow=none;html=1;rounded=0;exitX=0;exitY=0.5;exitDx=0;exitDy=0;entryX=1;entryY=0.5;entryDx=0;entryDy=0;" parent="1" source="0kKYyRj1Gr-UnhSWqb_t-5" target="0kKYyRj1Gr-UnhSWqb_t-1" edge="1">
          <mxGeometry relative="1" as="geometry">
            <mxPoint x="580" y="100" as="sourcePoint" />
            <mxPoint x="530" y="100" as="targetPoint" />
          </mxGeometry>
        </mxCell>
        <mxCell id="0kKYyRj1Gr-UnhSWqb_t-10" value="dateAdded" style="ellipse;whiteSpace=wrap;html=1;align=center;" parent="1" vertex="1">
          <mxGeometry x="827" y="130" width="100" height="40" as="geometry" />
        </mxCell>
        <mxCell id="0kKYyRj1Gr-UnhSWqb_t-11" value="reason" style="ellipse;whiteSpace=wrap;html=1;align=center;" parent="1" vertex="1">
          <mxGeometry x="714" y="140" width="100" height="40" as="geometry" />
        </mxCell>
        <mxCell id="0kKYyRj1Gr-UnhSWqb_t-12" value="" style="endArrow=none;html=1;rounded=0;exitX=0;exitY=0;exitDx=0;exitDy=0;entryX=1;entryY=0.75;entryDx=0;entryDy=0;" parent="1" source="0kKYyRj1Gr-UnhSWqb_t-10" target="0kKYyRj1Gr-UnhSWqb_t-1" edge="1">
          <mxGeometry relative="1" as="geometry">
            <mxPoint x="615" y="120" as="sourcePoint" />
            <mxPoint x="565" y="146" as="targetPoint" />
          </mxGeometry>
        </mxCell>
        <mxCell id="0kKYyRj1Gr-UnhSWqb_t-13" value="" style="endArrow=none;html=1;rounded=0;exitX=0;exitY=0;exitDx=0;exitDy=0;entryX=0.75;entryY=1;entryDx=0;entryDy=0;" parent="1" source="0kKYyRj1Gr-UnhSWqb_t-11" target="0kKYyRj1Gr-UnhSWqb_t-1" edge="1">
          <mxGeometry relative="1" as="geometry">
            <mxPoint x="775" y="136" as="sourcePoint" />
            <mxPoint x="720" y="110" as="targetPoint" />
          </mxGeometry>
        </mxCell>
        <mxCell id="0kKYyRj1Gr-UnhSWqb_t-14" value="" style="endArrow=none;html=1;rounded=0;exitX=0.5;exitY=0;exitDx=0;exitDy=0;entryX=0.5;entryY=1;entryDx=0;entryDy=0;" parent="1" source="6FRRIMLwlLPpchPOm-Yn-29" target="0kKYyRj1Gr-UnhSWqb_t-1" edge="1">
          <mxGeometry relative="1" as="geometry">
            <mxPoint x="650" y="410" as="sourcePoint" />
            <mxPoint x="640" y="80" as="targetPoint" />
          </mxGeometry>
        </mxCell>
        <mxCell id="0kKYyRj1Gr-UnhSWqb_t-15" value="N" style="resizable=0;html=1;whiteSpace=wrap;align=right;verticalAlign=bottom;" parent="0kKYyRj1Gr-UnhSWqb_t-14" connectable="0" vertex="1">
          <mxGeometry x="1" relative="1" as="geometry">
            <mxPoint y="20" as="offset" />
          </mxGeometry>
        </mxCell>
        <mxCell id="0kKYyRj1Gr-UnhSWqb_t-16" value="1" style="text;html=1;align=center;verticalAlign=middle;resizable=0;points=[];autosize=1;strokeColor=none;fillColor=none;" parent="1" vertex="1">
          <mxGeometry x="617" y="335" width="30" height="30" as="geometry" />
        </mxCell>
        <mxCell id="0kKYyRj1Gr-UnhSWqb_t-17" value="" style="endArrow=none;html=1;rounded=0;dashed=1;dashPattern=1 2;exitX=0.35;exitY=1;exitDx=0;exitDy=0;exitPerimeter=0;" parent="1" source="0kKYyRj1Gr-UnhSWqb_t-1" target="kIBsN0oIUsduCoJiP-RO-23" edge="1">
          <mxGeometry relative="1" as="geometry">
            <mxPoint x="630" y="80" as="sourcePoint" />
            <mxPoint x="1015" y="270" as="targetPoint" />
          </mxGeometry>
        </mxCell>
        <mxCell id="0kKYyRj1Gr-UnhSWqb_t-18" value="N" style="resizable=0;html=1;whiteSpace=wrap;align=right;verticalAlign=bottom;" parent="0kKYyRj1Gr-UnhSWqb_t-17" connectable="0" vertex="1">
          <mxGeometry x="1" relative="1" as="geometry" />
        </mxCell>
        <mxCell id="0kKYyRj1Gr-UnhSWqb_t-19" value="0" style="text;html=1;align=center;verticalAlign=middle;resizable=0;points=[];autosize=1;strokeColor=none;fillColor=none;" parent="1" vertex="1">
          <mxGeometry x="577" y="106" width="30" height="30" as="geometry" />
        </mxCell>
        <mxCell id="0kKYyRj1Gr-UnhSWqb_t-23" value="ScientificMembers" style="whiteSpace=wrap;html=1;align=center;" parent="1" vertex="1">
          <mxGeometry x="569" y="-120" width="140" height="40" as="geometry" />
        </mxCell>
        <mxCell id="0kKYyRj1Gr-UnhSWqb_t-24" value="scientificMemberId" style="ellipse;whiteSpace=wrap;html=1;align=center;fontStyle=4;" parent="1" vertex="1">
          <mxGeometry x="385" y="-120" width="140" height="40" as="geometry" />
        </mxCell>
        <mxCell id="0kKYyRj1Gr-UnhSWqb_t-25" value="jobTitle" style="ellipse;whiteSpace=wrap;html=1;align=center;" parent="1" vertex="1">
          <mxGeometry x="502" y="-180" width="100" height="40" as="geometry" />
        </mxCell>
        <mxCell id="0kKYyRj1Gr-UnhSWqb_t-26" value="department" style="ellipse;whiteSpace=wrap;html=1;align=center;" parent="1" vertex="1">
          <mxGeometry x="635" y="-190" width="100" height="40" as="geometry" />
        </mxCell>
        <mxCell id="0kKYyRj1Gr-UnhSWqb_t-27" value="" style="endArrow=none;html=1;rounded=0;exitX=0;exitY=0.5;exitDx=0;exitDy=0;entryX=1;entryY=0.5;entryDx=0;entryDy=0;" parent="1" source="0kKYyRj1Gr-UnhSWqb_t-23" target="0kKYyRj1Gr-UnhSWqb_t-24" edge="1">
          <mxGeometry relative="1" as="geometry">
            <mxPoint x="575" y="90" as="sourcePoint" />
            <mxPoint x="494" y="116" as="targetPoint" />
          </mxGeometry>
        </mxCell>
        <mxCell id="0kKYyRj1Gr-UnhSWqb_t-28" value="" style="endArrow=none;html=1;rounded=0;exitX=0.25;exitY=0;exitDx=0;exitDy=0;entryX=1;entryY=1;entryDx=0;entryDy=0;" parent="1" source="0kKYyRj1Gr-UnhSWqb_t-23" target="0kKYyRj1Gr-UnhSWqb_t-25" edge="1">
          <mxGeometry relative="1" as="geometry">
            <mxPoint x="579" y="-90" as="sourcePoint" />
            <mxPoint x="535" y="-90" as="targetPoint" />
          </mxGeometry>
        </mxCell>
        <mxCell id="0kKYyRj1Gr-UnhSWqb_t-29" value="" style="endArrow=none;html=1;rounded=0;exitX=0.75;exitY=0;exitDx=0;exitDy=0;entryX=0.5;entryY=1;entryDx=0;entryDy=0;" parent="1" source="0kKYyRj1Gr-UnhSWqb_t-23" target="0kKYyRj1Gr-UnhSWqb_t-26" edge="1">
          <mxGeometry relative="1" as="geometry">
            <mxPoint x="614" y="-110" as="sourcePoint" />
            <mxPoint x="597" y="-136" as="targetPoint" />
          </mxGeometry>
        </mxCell>
        <mxCell id="0kKYyRj1Gr-UnhSWqb_t-30" value="" style="endArrow=none;html=1;rounded=0;exitX=0.5;exitY=1;exitDx=0;exitDy=0;entryX=0.5;entryY=0;entryDx=0;entryDy=0;" parent="1" source="0kKYyRj1Gr-UnhSWqb_t-23" target="0kKYyRj1Gr-UnhSWqb_t-1" edge="1">
          <mxGeometry relative="1" as="geometry">
            <mxPoint x="650" y="410" as="sourcePoint" />
            <mxPoint x="650" y="120" as="targetPoint" />
          </mxGeometry>
        </mxCell>
        <mxCell id="0kKYyRj1Gr-UnhSWqb_t-31" value="N" style="resizable=0;html=1;whiteSpace=wrap;align=right;verticalAlign=bottom;" parent="0kKYyRj1Gr-UnhSWqb_t-30" connectable="0" vertex="1">
          <mxGeometry x="1" relative="1" as="geometry">
            <mxPoint as="offset" />
          </mxGeometry>
        </mxCell>
        <mxCell id="0kKYyRj1Gr-UnhSWqb_t-32" value="1" style="text;html=1;align=center;verticalAlign=middle;resizable=0;points=[];autosize=1;strokeColor=none;fillColor=none;" parent="1" vertex="1">
          <mxGeometry x="617" y="-82" width="30" height="30" as="geometry" />
        </mxCell>
        <mxCell id="0kKYyRj1Gr-UnhSWqb_t-35" value="ManualACMGRules" style="whiteSpace=wrap;html=1;align=center;" parent="1" vertex="1">
          <mxGeometry x="-200" y="360" width="140" height="40" as="geometry" />
        </mxCell>
        <mxCell id="0kKYyRj1Gr-UnhSWqb_t-37" value="sampleId" style="ellipse;whiteSpace=wrap;html=1;align=center;fontStyle=4;" parent="1" vertex="1">
          <mxGeometry x="-340" y="360" width="100" height="40" as="geometry" />
        </mxCell>
        <mxCell id="0kKYyRj1Gr-UnhSWqb_t-38" value="scientificMemberId" style="ellipse;whiteSpace=wrap;html=1;align=center;fontStyle=4;" parent="1" vertex="1">
          <mxGeometry x="-303" y="303" width="140" height="40" as="geometry" />
        </mxCell>
        <mxCell id="0kKYyRj1Gr-UnhSWqb_t-39" value="" style="endArrow=none;html=1;rounded=0;exitX=0.25;exitY=0;exitDx=0;exitDy=0;entryX=1;entryY=1;entryDx=0;entryDy=0;" parent="1" source="0kKYyRj1Gr-UnhSWqb_t-35" target="0kKYyRj1Gr-UnhSWqb_t-38" edge="1">
          <mxGeometry relative="1" as="geometry">
            <mxPoint x="790" y="110" as="sourcePoint" />
            <mxPoint x="709" y="136" as="targetPoint" />
          </mxGeometry>
        </mxCell>
        <mxCell id="0kKYyRj1Gr-UnhSWqb_t-40" value="" style="endArrow=none;html=1;rounded=0;exitX=0;exitY=0.5;exitDx=0;exitDy=0;entryX=1;entryY=0.5;entryDx=0;entryDy=0;" parent="1" source="0kKYyRj1Gr-UnhSWqb_t-35" target="0kKYyRj1Gr-UnhSWqb_t-37" edge="1">
          <mxGeometry relative="1" as="geometry">
            <mxPoint x="-120" y="370" as="sourcePoint" />
            <mxPoint x="-171" y="334" as="targetPoint" />
          </mxGeometry>
        </mxCell>
        <mxCell id="0kKYyRj1Gr-UnhSWqb_t-42" value="dateAdded" style="ellipse;whiteSpace=wrap;html=1;align=center;" parent="1" vertex="1">
          <mxGeometry x="-230" y="470" width="100" height="40" as="geometry" />
        </mxCell>
        <mxCell id="0kKYyRj1Gr-UnhSWqb_t-43" value="" style="endArrow=none;html=1;rounded=0;exitX=0;exitY=0.75;exitDx=0;exitDy=0;entryX=0.5;entryY=0;entryDx=0;entryDy=0;" parent="1" source="0kKYyRj1Gr-UnhSWqb_t-35" target="UYhkerZ1LqD46kYfvywc-1" edge="1">
          <mxGeometry relative="1" as="geometry">
            <mxPoint x="-120" y="370" as="sourcePoint" />
            <mxPoint x="-253" y="425" as="targetPoint" />
          </mxGeometry>
        </mxCell>
        <mxCell id="0kKYyRj1Gr-UnhSWqb_t-44" value="" style="endArrow=none;html=1;rounded=0;exitX=0.5;exitY=1;exitDx=0;exitDy=0;entryX=0.5;entryY=0;entryDx=0;entryDy=0;" parent="1" source="0kKYyRj1Gr-UnhSWqb_t-35" target="0kKYyRj1Gr-UnhSWqb_t-42" edge="1">
          <mxGeometry relative="1" as="geometry">
            <mxPoint x="-155" y="410" as="sourcePoint" />
            <mxPoint x="-210" y="432" as="targetPoint" />
          </mxGeometry>
        </mxCell>
        <mxCell id="0kKYyRj1Gr-UnhSWqb_t-45" value="" style="endArrow=none;html=1;rounded=0;exitX=0.25;exitY=1;exitDx=0;exitDy=0;entryX=0.75;entryY=0;entryDx=0;entryDy=0;" parent="1" source="0kKYyRj1Gr-UnhSWqb_t-23" target="0kKYyRj1Gr-UnhSWqb_t-35" edge="1">
          <mxGeometry relative="1" as="geometry">
            <mxPoint x="649" y="-20" as="sourcePoint" />
            <mxPoint x="650" y="80" as="targetPoint" />
          </mxGeometry>
        </mxCell>
        <mxCell id="0kKYyRj1Gr-UnhSWqb_t-46" value="N" style="resizable=0;html=1;whiteSpace=wrap;align=right;verticalAlign=bottom;" parent="0kKYyRj1Gr-UnhSWqb_t-45" connectable="0" vertex="1">
          <mxGeometry x="1" relative="1" as="geometry">
            <mxPoint as="offset" />
          </mxGeometry>
        </mxCell>
        <mxCell id="0kKYyRj1Gr-UnhSWqb_t-47" value="1" style="text;html=1;align=center;verticalAlign=middle;resizable=0;points=[];autosize=1;strokeColor=none;fillColor=none;" parent="1" vertex="1">
          <mxGeometry x="545" y="-89" width="30" height="30" as="geometry" />
        </mxCell>
        <mxCell id="0kKYyRj1Gr-UnhSWqb_t-51" value="" style="endArrow=none;html=1;rounded=0;dashed=1;dashPattern=1 2;exitX=0.25;exitY=0;exitDx=0;exitDy=0;entryX=0.75;entryY=1;entryDx=0;entryDy=0;" parent="1" source="c6Hb2zQQ8QE9ZAwWw3pe-11" target="0kKYyRj1Gr-UnhSWqb_t-35" edge="1">
          <mxGeometry relative="1" as="geometry">
            <mxPoint x="420" y="780" as="sourcePoint" />
            <mxPoint x="-180" y="460" as="targetPoint" />
          </mxGeometry>
        </mxCell>
        <mxCell id="0kKYyRj1Gr-UnhSWqb_t-52" value="N" style="resizable=0;html=1;whiteSpace=wrap;align=right;verticalAlign=bottom;" parent="0kKYyRj1Gr-UnhSWqb_t-51" connectable="0" vertex="1">
          <mxGeometry x="1" relative="1" as="geometry">
            <mxPoint y="20" as="offset" />
          </mxGeometry>
        </mxCell>
        <mxCell id="0kKYyRj1Gr-UnhSWqb_t-53" value="0" style="text;html=1;align=center;verticalAlign=middle;resizable=0;points=[];autosize=1;strokeColor=none;fillColor=none;" parent="1" vertex="1">
          <mxGeometry x="569" y="790" width="30" height="30" as="geometry" />
        </mxCell>
        <mxCell id="0kKYyRj1Gr-UnhSWqb_t-54" value="For ethical reasons this entity will be excluded from this dissertation but will be included for use in the laboratory" style="text;html=1;align=center;verticalAlign=middle;resizable=0;points=[];autosize=1;strokeColor=none;fillColor=none;" parent="1" vertex="1">
          <mxGeometry x="340" y="978" width="620" height="30" as="geometry" />
        </mxCell>
        <mxCell id="UYhkerZ1LqD46kYfvywc-1" value="ACMGRule" style="ellipse;shape=doubleEllipse;margin=3;whiteSpace=wrap;html=1;align=center;" vertex="1" parent="1">
          <mxGeometry x="-320" y="425" width="100" height="40" as="geometry" />
        </mxCell>
        <mxCell id="UYhkerZ1LqD46kYfvywc-2" value="PS2&lt;br&gt;PM3&lt;br&gt;PM6&lt;br&gt;PP1&lt;br&gt;PP4&lt;br&gt;BS4&lt;br&gt;BP2" style="text;html=1;align=center;verticalAlign=middle;resizable=0;points=[];autosize=1;strokeColor=none;fillColor=none;" vertex="1" parent="1">
          <mxGeometry x="-440" y="435" width="50" height="110" as="geometry" />
        </mxCell>
        <mxCell id="UYhkerZ1LqD46kYfvywc-3" value="PS3&lt;br&gt;PP5&lt;br&gt;BP6" style="text;html=1;align=center;verticalAlign=middle;resizable=0;points=[];autosize=1;strokeColor=none;fillColor=none;" vertex="1" parent="1">
          <mxGeometry x="-370" y="460" width="50" height="60" as="geometry" />
        </mxCell>
        <mxCell id="6C0SObV1-QNve3I2pQrh-1" value="genomeVersion" style="ellipse;whiteSpace=wrap;html=1;align=center;" vertex="1" parent="1">
          <mxGeometry x="720" y="810" width="100" height="40" as="geometry" />
        </mxCell>
        <mxCell id="6C0SObV1-QNve3I2pQrh-2" value="" style="endArrow=none;html=1;rounded=0;entryX=0;entryY=0.5;entryDx=0;entryDy=0;exitX=1;exitY=0.5;exitDx=0;exitDy=0;" edge="1" parent="1" source="c6Hb2zQQ8QE9ZAwWw3pe-11" target="6C0SObV1-QNve3I2pQrh-1">
          <mxGeometry relative="1" as="geometry">
            <mxPoint x="680" y="860" as="sourcePoint" />
            <mxPoint x="705" y="886" as="targetPoint" />
          </mxGeometry>
        </mxCell>
        <mxCell id="6C0SObV1-QNve3I2pQrh-7" value="uid" style="text;html=1;align=center;verticalAlign=middle;resizable=0;points=[];autosize=1;strokeColor=none;fillColor=none;" vertex="1" parent="1">
          <mxGeometry x="1475" y="219" width="40" height="30" as="geometry" />
        </mxCell>
        <mxCell id="6C0SObV1-QNve3I2pQrh-8" value="rsid" style="text;html=1;align=center;verticalAlign=middle;resizable=0;points=[];autosize=1;strokeColor=none;fillColor=none;" vertex="1" parent="1">
          <mxGeometry x="1525" y="38" width="40" height="30" as="geometry" />
        </mxCell>
        <mxCell id="6C0SObV1-QNve3I2pQrh-9" value="SampleFiles" style="whiteSpace=wrap;html=1;align=center;" vertex="1" parent="1">
          <mxGeometry x="285" y="810" width="100" height="40" as="geometry" />
        </mxCell>
        <mxCell id="6C0SObV1-QNve3I2pQrh-10" value="dateUploaded" style="ellipse;whiteSpace=wrap;html=1;align=center;" vertex="1" parent="1">
          <mxGeometry x="110" y="856" width="140" height="40" as="geometry" />
        </mxCell>
        <mxCell id="6C0SObV1-QNve3I2pQrh-11" value="fileName" style="ellipse;whiteSpace=wrap;html=1;align=center;" vertex="1" parent="1">
          <mxGeometry x="90" y="800" width="140" height="40" as="geometry" />
        </mxCell>
        <mxCell id="6C0SObV1-QNve3I2pQrh-12" value="&lt;u&gt;sampleFileId&lt;/u&gt;" style="ellipse;whiteSpace=wrap;html=1;align=center;" vertex="1" parent="1">
          <mxGeometry x="230" y="890" width="140" height="40" as="geometry" />
        </mxCell>
        <mxCell id="6C0SObV1-QNve3I2pQrh-13" value="" style="endArrow=none;html=1;rounded=0;entryX=0;entryY=0.25;entryDx=0;entryDy=0;exitX=1;exitY=0.5;exitDx=0;exitDy=0;" edge="1" parent="1" source="6C0SObV1-QNve3I2pQrh-11" target="6C0SObV1-QNve3I2pQrh-9">
          <mxGeometry relative="1" as="geometry">
            <mxPoint x="285" y="761" as="sourcePoint" />
            <mxPoint x="265" y="831" as="targetPoint" />
          </mxGeometry>
        </mxCell>
        <mxCell id="6C0SObV1-QNve3I2pQrh-14" value="" style="endArrow=none;html=1;rounded=0;exitX=1;exitY=0;exitDx=0;exitDy=0;entryX=0;entryY=0.75;entryDx=0;entryDy=0;" edge="1" parent="1" source="6C0SObV1-QNve3I2pQrh-10" target="6C0SObV1-QNve3I2pQrh-9">
          <mxGeometry relative="1" as="geometry">
            <mxPoint x="295" y="771" as="sourcePoint" />
            <mxPoint x="345" y="816" as="targetPoint" />
          </mxGeometry>
        </mxCell>
        <mxCell id="6C0SObV1-QNve3I2pQrh-15" value="" style="endArrow=none;html=1;rounded=0;exitX=0.5;exitY=0;exitDx=0;exitDy=0;entryX=0.25;entryY=1;entryDx=0;entryDy=0;" edge="1" parent="1" source="6C0SObV1-QNve3I2pQrh-12" target="6C0SObV1-QNve3I2pQrh-9">
          <mxGeometry relative="1" as="geometry">
            <mxPoint x="245" y="836" as="sourcePoint" />
            <mxPoint x="295" y="836" as="targetPoint" />
          </mxGeometry>
        </mxCell>
        <mxCell id="6C0SObV1-QNve3I2pQrh-16" value="" style="endArrow=none;html=1;rounded=0;entryX=0;entryY=0.5;entryDx=0;entryDy=0;exitX=1;exitY=0.5;exitDx=0;exitDy=0;" edge="1" parent="1" source="6C0SObV1-QNve3I2pQrh-9" target="c6Hb2zQQ8QE9ZAwWw3pe-11">
          <mxGeometry relative="1" as="geometry">
            <mxPoint x="650" y="820" as="sourcePoint" />
            <mxPoint x="650" y="677" as="targetPoint" />
          </mxGeometry>
        </mxCell>
        <mxCell id="6C0SObV1-QNve3I2pQrh-17" value="N" style="resizable=0;html=1;whiteSpace=wrap;align=right;verticalAlign=bottom;" connectable="0" vertex="1" parent="6C0SObV1-QNve3I2pQrh-16">
          <mxGeometry x="1" relative="1" as="geometry">
            <mxPoint x="-5" y="20" as="offset" />
          </mxGeometry>
        </mxCell>
        <mxCell id="6C0SObV1-QNve3I2pQrh-18" value="1" style="text;html=1;align=center;verticalAlign=middle;resizable=0;points=[];autosize=1;strokeColor=none;fillColor=none;" vertex="1" parent="1">
          <mxGeometry x="380" y="826" width="30" height="30" as="geometry" />
        </mxCell>
        <mxCell id="6C0SObV1-QNve3I2pQrh-19" value="areRsidsRetrieved" style="ellipse;whiteSpace=wrap;html=1;align=center;" vertex="1" parent="1">
          <mxGeometry x="160" y="747" width="140" height="40" as="geometry" />
        </mxCell>
        <mxCell id="6C0SObV1-QNve3I2pQrh-20" value="" style="endArrow=none;html=1;rounded=0;entryX=0.25;entryY=0;entryDx=0;entryDy=0;exitX=1;exitY=1;exitDx=0;exitDy=0;" edge="1" parent="1" source="6C0SObV1-QNve3I2pQrh-19" target="6C0SObV1-QNve3I2pQrh-9">
          <mxGeometry relative="1" as="geometry">
            <mxPoint x="240" y="830" as="sourcePoint" />
            <mxPoint x="295" y="830" as="targetPoint" />
          </mxGeometry>
        </mxCell>
        <mxCell id="6C0SObV1-QNve3I2pQrh-21" value="isClinvarAccessed" style="ellipse;whiteSpace=wrap;html=1;align=center;" vertex="1" parent="1">
          <mxGeometry x="250" y="707" width="140" height="40" as="geometry" />
        </mxCell>
        <mxCell id="6C0SObV1-QNve3I2pQrh-22" value="" style="endArrow=none;html=1;rounded=0;entryX=0.5;entryY=0;entryDx=0;entryDy=0;exitX=0.5;exitY=1;exitDx=0;exitDy=0;" edge="1" parent="1" source="6C0SObV1-QNve3I2pQrh-21" target="6C0SObV1-QNve3I2pQrh-9">
          <mxGeometry relative="1" as="geometry">
            <mxPoint x="289" y="791" as="sourcePoint" />
            <mxPoint x="320" y="820" as="targetPoint" />
          </mxGeometry>
        </mxCell>
      </root>
    </mxGraphModel>
  </diagram>
</mxfile>
